<?xml version="1.0" encoding="utf-8"?>
<!-- Generator: Adobe Illustrator 22.1.0, SVG Export Plug-In . SVG Version: 6.00 Build 0)  -->
<svg version="1.1" id="Слой_1" xmlns="http://www.w3.org/2000/svg" xmlns:xlink="http://www.w3.org/1999/xlink" x="0px" y="0px"
	 viewBox="0 0 500 500" style="enable-background:new 0 0 500 500;" xml:space="preserve">
<style type="text/css">
	.st0{fill:url(#SVGID_1_);}
	.st1{fill:#FFFFFF;}
	.st2{fill:url(#SVGID_2_);}
</style>
<linearGradient id="SVGID_1_" gradientUnits="userSpaceOnUse" x1="248.4484" y1="44.4106" x2="251.3037" y2="422.744">
	<stop  offset="7.823110e-08" style="stop-color:#349ADC"/>
	<stop  offset="1" style="stop-color:#202072"/>
</linearGradient>
<circle class="st0" cx="250" cy="250" r="227"/>
<g>
	<path class="st1" d="M407.9,413.2l-5.8-4.2l-5.7-4.3l-11.5-8.6c-7.6-5.8-15.2-11.5-22.8-17.4c-7.6-5.8-15.1-11.7-22.6-17.5
		L317,343.5l-22.3-17.8l-22.2-18l-21.9-18.2l-21.8-18.4c-7.2-6.1-14.7-12-22.3-17.8c-7.6-5.8-15.3-11.4-22.8-17.3
		c-7.5-5.9-14.7-12-21.5-18.7c-6.7-6.6-13-13.7-18.9-21.2c-11.8-14.9-22.7-30.8-32.4-47.9c-4.8-8.5-9.3-17.4-13.4-26.7
		c-2-4.6-4-9.4-5.8-14.3c-1.8-4.9-3.5-9.9-4.8-15.2l5.3-5.3c5.4,1.3,10.4,3,15.2,4.8c4.9,1.8,9.7,3.7,14.3,5.8
		c9.3,4.1,18.2,8.6,26.7,13.4c17.1,9.7,33,20.6,47.9,32.4c7.5,5.9,14.6,12.2,21.2,18.9c6.6,6.7,12.8,14,18.7,21.5
		c5.9,7.5,11.5,15.2,17.3,22.8c5.8,7.6,11.7,15.1,17.8,22.3l18.4,21.8l18.2,21.9l18,22.2l17.8,22.3l17.7,22.5
		c5.8,7.5,11.7,15,17.5,22.6c5.8,7.6,11.6,15.2,17.4,22.8l8.6,11.5l4.3,5.7l4.2,5.8L407.9,413.2z"/>
</g>
<circle class="st1" cx="209.9" cy="209.9" r="131.4"/>
<g>
	<linearGradient id="SVGID_2_" gradientUnits="userSpaceOnUse" x1="199.6176" y1="137.6383" x2="251.5492" y2="338.4048">
		<stop  offset="7.823110e-08" style="stop-color:#349ADC"/>
		<stop  offset="1" style="stop-color:#202072"/>
	</linearGradient>
	<circle class="st2" cx="222.1" cy="224.5" r="84.6"/>
</g>
</svg>
