<?xml version="1.0"?>
<svg xmlns="http://www.w3.org/2000/svg" height="512px" viewBox="-21 -41 682.66669 682" width="512px"><g><path d="m130.351562 59.179688c-.058593-.234376-.121093-.472657-.195312-.707032-8.792969-29.410156-23.355469-59.472656-64.648438-59.472656h-46.757812c-10.355469 0-18.75 8.394531-18.75 18.75s8.394531 18.75 18.75 18.75h46.757812c11.398438 0 19.554688 2.261719 28.617188 32.375l8.066406 31.398438h38.722656zm0 0" data-original="#000000" class="active-path" data-old_color="#000000" fill="#2965FF"/><path d="m626.019531 151.382812c-8.945312-8.824218-20.804687-13.675781-33.410156-13.675781h-.039063l-480.664062.355469 62.085938 241.652344c.039062.144531.078124.292968.117187.4375 10.066406 35.589844 32.277344 56 60.9375 56h38.171875v20.246094c-31.304688 8.222656-54.4375 36.53125-54.4375 70.097656 0 39.980468 32.828125 72.507812 73.1875 72.507812s73.191406-32.527344 73.191406-72.507812c0-33.566406-23.136718-61.875-54.441406-70.097656v-20.246094h199.742188v20.246094c-31.304688 8.222656-54.441407 36.53125-54.441407 70.097656 0 39.980468 32.832031 72.507812 73.191407 72.507812 40.359374 0 73.191406-32.527344 73.191406-72.507812 0-33.566406-23.140625-61.875-54.441406-70.097656v-20.246094h27.03125c35.84375 0 65.007812-28.898438 65.007812-64.425782v-186.988281c0-12.617187-4.964844-24.464843-13.980469-33.355469zm0 0" data-original="#000000" class="active-path" data-old_color="#000000" fill="#2965FF"/></g> </svg>
