<?xml version="1.0" encoding="utf-8"?>
<!-- Generator: Adobe Illustrator 22.1.0, SVG Export Plug-In . SVG Version: 6.00 Build 0)  -->
<svg version="1.1" id="Слой_1" xmlns="http://www.w3.org/2000/svg" xmlns:xlink="http://www.w3.org/1999/xlink" x="0px" y="0px"
	 viewBox="0 0 79 70" style="enable-background:new 0 0 79 70;" xml:space="preserve">
<style type="text/css">
	.st0{fill:url(#SVGID_1_);}
	.st1{fill:#3C3B3B;}
	.st2{fill:#FFFFFF;}
	.st3{fill:#3B3B3B;}
	.st4{fill:#3D3C3C;}
	.st5{fill:#3E3C3C;}
	.st6{fill:#3E3F3E;}
	.st7{fill:#3F3F3F;}
	.st8{fill:#3F3F3E;}
	.st9{fill:#3E3E3E;}
	.st10{fill:#414140;}
	.st11{fill:#3D3E3D;}
	.st12{fill:#40403F;}
	.st13{fill:#3F4040;}
	.st14{fill:#3F4140;}
	.st15{fill:#404040;}
	.st16{fill:#3F403F;}
	.st17{fill:#424343;}
	.st18{fill:#3E3F3F;}
	.st19{fill:#3E403F;}
	.st20{fill:#404241;}
	.st21{fill:#404140;}
	.st22{fill:#3D3E3E;}
	.st23{fill:#434242;}
	.st24{fill:#414141;}
	.st25{fill:#414241;}
	.st26{fill:#3B3C3C;}
	.st27{fill:#3D3F3E;}
	.st28{fill:#424241;}
	.st29{fill:#414040;}
	.st30{fill:#403F3F;}
	.st31{fill:#F6F6F7;}
	.st32{fill:#F8F8F9;}
	.st33{fill:#434545;}
	.st34{fill:#686B6D;}
	.st35{fill:#474848;}
	.st36{fill:#56595A;}
	.st37{fill:#525455;}
	.st38{fill:#4D5151;}
	.st39{fill:#595B5C;}
	.st40{fill:#535556;}
	.st41{fill:#515253;}
	.st42{fill:#DFDFE2;}
	.st43{fill:#4E4F50;}
	.st44{fill:#4E4E4F;}
	.st45{fill:#D8D8DA;}
	.st46{fill:#4B4C4D;}
	.st47{fill:#575A5B;}
	.st48{fill:#DDDDDF;}
	.st49{fill:#4E5151;}
	.st50{fill:#454747;}
	.st51{fill:#505152;}
	.st52{fill:#414443;}
	.st53{fill:#4A4D4D;}
	.st54{fill:#464A49;}
	.st55{fill:#4B4D4D;}
	.st56{fill:#EBEBED;}
	.st57{fill:#535757;}
	.st58{fill:#505253;}
	.st59{fill:#545858;}
	.st60{fill:#4C4F4F;}
	.st61{fill:#555859;}
	.st62{fill:#434746;}
	.st63{fill:#474A4A;}
	.st64{fill:#414343;}
	.st65{fill:#3A3E3D;}
	.st66{fill:#454A49;}
	.st67{fill:#424645;}
	.st68{fill:#494C4C;}
	.st69{fill:#454848;}
	.st70{fill:#4E5252;}
	.st71{fill:#5A5E5F;}
	.st72{fill:#535657;}
	.st73{fill:#5B5D5E;}
	.st74{fill:#7A7C80;}
	.st75{fill:#6C6E71;}
	.st76{fill:#5B5E5F;}
	.st77{fill:#404443;}
	.st78{fill:#6E7173;}
	.st79{fill:#575C5C;}
	.st80{fill:#656769;}
	.st81{fill:#424443;}
	.st82{fill:#484D4D;}
	.st83{fill:#6A6E70;}
	.st84{fill:#5F6163;}
	.st85{fill:#6C6F71;}
	.st86{fill:#4D4F50;}
	.st87{fill:#5B5F60;}
	.st88{fill:#585C5D;}
	.st89{fill:#5C5E60;}
	.st90{fill:#434747;}
	.st91{fill:#5D5F60;}
	.st92{fill:#4E5050;}
	.st93{fill:#74777A;}
	.st94{fill:#636768;}
	.st95{fill:#464848;}
	.st96{fill:#5E6263;}
	.st97{fill:#6B6E70;}
	.st98{fill:#525556;}
	.st99{fill:#646769;}
	.st100{fill:#727477;}
	.st101{fill:#7D8184;}
	.st102{fill:#76797C;}
	.st103{fill:#515555;}
	.st104{fill:#636467;}
	.st105{fill:#737779;}
	.st106{fill:#555556;}
	.st107{fill:#85878B;}
	.st108{fill:#646567;}
	.st109{fill:#636769;}
	.st110{fill:#7B7F82;}
	.st111{fill:#55595A;}
	.st112{fill:#636567;}
	.st113{fill:#363A38;}
	.st114{fill:#727577;}
	.st115{fill:#6A6F71;}
	.st116{fill:#92959A;}
	.st117{fill:#666A6C;}
	.st118{fill:#5B6060;}
	.st119{fill:#7E8285;}
	.st120{fill:#414242;}
	.st121{fill:#65696A;}
	.st122{fill:#6E6F72;}
	.st123{fill:#3E4241;}
	.st124{fill:#C8C8CF;}
	.st125{fill:#595D5E;}
	.st126{fill:#575B5B;}
	.st127{fill:#484C4C;}
	.st128{fill:#646568;}
	.st129{fill:#4B4F4E;}
	.st130{fill:#6F7174;}
	.st131{fill:#8F9297;}
	.st132{fill:#505454;}
	.st133{fill:#505555;}
	.st134{fill:#4A4E4E;}
	.st135{fill:#404342;}
	.st136{fill:#494D4D;}
	.st137{fill:#393D3B;}
	.st138{fill:#3B3F3E;}
	.st139{fill:#727578;}
	.st140{fill:#868A8E;}
	.st141{fill:#717477;}
	.st142{fill:#696B6D;}
	.st143{fill:#5F6264;}
	.st144{fill:#414644;}
	.st145{fill:#434646;}
	.st146{fill:#686A6C;}
	.st147{fill:#707375;}
	.st148{fill:#7C8083;}
	.st149{fill:#7A7E81;}
	.st150{fill:#65686A;}
	.st151{fill:#66686A;}
	.st152{fill:#707174;}
	.st153{fill:#696D6F;}
	.st154{fill:#373B3A;}
	.st155{fill:#484C4B;}
	.st156{fill:#404544;}
	.st157{fill:#585B5C;}
	.st158{fill:#616365;}
	.st159{fill:#3A3D3C;}
	.st160{fill:#717375;}
	.st161{fill:#383C3B;}
	.st162{fill:#7A7D80;}
	.st163{fill:#515354;}
	.st164{fill:#787B7E;}
	.st165{fill:#747578;}
	.st166{fill:#474B4B;}
	.st167{fill:#8D9095;}
	.st168{fill:#68696C;}
	.st169{fill:#565A5B;}
	.st170{fill:#606465;}
	.st171{fill:#797C7F;}
	.st172{fill:#464B4A;}
	.st173{fill:#737679;}
	.st174{fill:#676B6C;}
	.st175{fill:#565B5C;}
	.st176{fill:#6C7072;}
	.st177{fill:#66686B;}
	.st178{fill:#626365;}
	.st179{fill:#494E4D;}
	.st180{fill:#797A7D;}
	.st181{fill:#6D7173;}
	.st182{fill:#6A6B6E;}
	.st183{fill:#787A7D;}
	.st184{fill:#6F7274;}
	.st185{fill:#595C5D;}
	.st186{fill:#6F7173;}
	.st187{fill:#373B39;}
	.st188{fill:#616466;}
	.st189{fill:#505455;}
	.st190{fill:#6D6F72;}
	.st191{fill:#777B7D;}
	.st192{fill:#808488;}
	.st193{fill:#3A3C3B;}
	.st194{fill:#626668;}
	.st195{fill:#6F7275;}
	.st196{fill:#4E5152;}
	.st197{fill:#3B3C3B;}
	.st198{fill:#646869;}
	.st199{fill:#FDFDFE;}
	.st200{fill:#FEFEFE;}
	.st201{fill:#3D3C3B;}
	.st202{fill:#0079BE;}
	.st203{fill:#00A5E6;}
	.st204{fill:#0076AA;}
	.st205{fill:#0077A7;}
	.st206{fill:#0076AC;}
	.st207{fill:#FDFDFD;}
	.st208{fill:#FBFCFD;}
	.st209{fill:#F9FCFD;}
	.st210{fill:#EFF7FC;}
	.st211{fill:#F7FAFD;}
	.st212{fill:#0077AF;}
	.st213{fill:#EFF5FB;}
	.st214{fill:#0076A8;}
	.st215{fill:#0076AB;}
	.st216{fill:#0077AE;}
	.st217{fill:#0077AA;}
	.st218{fill:#007BBE;}
	.st219{fill:#0078B2;}
	.st220{fill:#007ABE;}
	.st221{fill:none;stroke:#FFFFFF;stroke-miterlimit:10;}
	.st222{fill:none;stroke:#FFFFFF;stroke-width:0.75;stroke-miterlimit:10;}
</style>
<g>
	
		<linearGradient id="SVGID_1_" gradientUnits="userSpaceOnUse" x1="-110.6657" y1="-0.3276" x2="61.3343" y2="42.4224" gradientTransform="matrix(1 0 0 -1 0 72)">
		<stop  offset="1.342091e-07" style="stop-color:#FFFFFF"/>
		<stop  offset="1" style="stop-color:#038BFF"/>
	</linearGradient>
	<path class="st0" d="M63.6,70H15.4C7,70,0.1,63.9,0.1,56.4V13.6C0.1,6.1,7,0,15.4,0h48.2C72.1,0,79,6.1,79,13.6v42.8
		C79,63.9,72.1,70,63.6,70z"/>
</g>
<g>
	<path class="st1" d="M33.8,11.6c13.5,0,24.4,10.9,24.4,24.4c0,13.6-10.9,24.5-24.5,24.5S9.1,49.3,9.4,35.7
		C9.6,22.3,20.5,11.5,33.8,11.6z"/>
	<path class="st2" d="M33.8,12.2c13-0.1,23.9,10.7,23.8,24.1c-0.2,12.9-10.8,23.5-24,23.4C20.4,59.6,9.8,48.8,10,35.5
		C10.3,22.6,20.9,12.2,33.8,12.2z"/>
	<path class="st3" d="M18.2,36c0-8.5,6.9-15.4,15.2-15.6c8.8-0.2,16,7,15.9,15.8c-0.1,8.4-7,15.4-15.6,15.3
		C25.2,51.6,18.2,44.6,18.2,36z"/>
	<path class="st4" d="M15.1,31.2c0,0.3-0.3,0.6-0.6,0.6c-0.4,0-0.6-0.2-0.6-0.6s0.2-0.7,0.6-0.7C14.8,30.6,15.1,30.9,15.1,31.2z"/>
	<path class="st5" d="M53.7,31.2c0,0.4-0.3,0.6-0.6,0.6c-0.4,0-0.7-0.3-0.6-0.7c0-0.3,0.3-0.6,0.6-0.6
		C53.4,30.6,53.7,30.9,53.7,31.2z"/>
	<path class="st6" d="M52.6,35.4c0.5,0,1.1,0,1.6,0c0.2,0,0.2-0.1,0.3-0.3c0,0.3,0,0.5,0,0.8c0-0.2-0.2-0.3-0.4-0.2
		c-0.4,0-0.8,0-1.2,0.1c-0.1,0-0.2-0.1-0.3,0.1c0,0.1,0,0.3,0.1,0.4c0.1,0.1,0.3,0.1,0.4,0.2c-0.5,0.2-0.6,0.1-0.6-0.4
		C52.5,35.8,52.6,35.6,52.6,35.4C52.6,35.3,52.6,35.3,52.6,35.4z"/>
	<path class="st7" d="M15.1,27.1c-0.1,0-0.2,0-0.3,0.1c0.1-0.4,0.3-0.6,0.7-0.6c0.3,0,0.7,0,1-0.2c0.4-0.3,0.5,0.2,0.8,0.2v0.1
		c-0.5,0.1-1,0.1-1.5,0.2C15.7,26.9,15.4,26.9,15.1,27.1C15.2,27.1,15.2,27.2,15.1,27.1z"/>
	<path class="st8" d="M21.4,19.4c-0.1,0-0.1-0.1-0.2-0.1c0.4-0.3,0.4-0.3,0.9-0.1c0.4,0.1,0.7,0.3,1.1,0.4c0.3,0,0.3,0.3,0.5,0.6
		C22.9,20,22.2,19.6,21.4,19.4C21.5,19.5,21.4,19.5,21.4,19.4z"/>
	<path class="st7" d="M40.3,55c0.1,0.2,0.1,0.4,0.2,0.6c0,0,0,0-0.1,0.1c-0.3-0.2-0.5-0.4-0.8-0.6c-0.4-0.3-0.8-0.7-1.3-0.9
		c0.5-0.2,0.5-0.2,0.9,0.1c0.3,0.2,0.6,0.5,0.9,0.7C40.2,55,40.2,55,40.3,55z"/>
	<path class="st6" d="M17.1,45.4c0.1-0.1,0.2-0.1,0.3-0.2c0.2,0.2,0.3,0.4,0.1,0.7c-0.2,0.3-0.3,0.6-0.4,0.9c0,0.1-0.1,0.2,0,0.2
		l0,0l0,0c-0.2,0.1-0.4,0.3-0.6,0.4c0,0,0,0-0.1-0.1c0.2-0.6,0.5-1.1,0.7-1.7C17.2,45.6,17.4,45.5,17.1,45.4L17.1,45.4z"/>
	<path class="st9" d="M51.2,27.2c-0.2,0.1-0.4,0.2-0.6,0.4c-0.1-0.2,0-0.3,0.1-0.4c0.2-0.6,0.6-1.1,0.7-1.7c0-0.1,0-0.1,0-0.2
		c0.1,0,0.1-0.2,0.2-0.1c0.1,0.1,0.3,0.3,0.1,0.5c-0.2,0.4-0.4,0.8-0.6,1.2C51.2,27,51.1,27.1,51.2,27.2
		C51.3,27.1,51.3,27.1,51.2,27.2C51.3,27.2,51.3,27.2,51.2,27.2z"/>
	<path class="st6" d="M13.2,34.2c0.6,0.1,1.2,0.1,1.8,0.1c0.1,0.1,0.1,0.2,0,0.3c0,0.1,0,0.1,0,0.2c0,0.6,0,0.6-0.7,0.5
		c0.1-0.1,0.3-0.1,0.4-0.1c0.2-0.1,0.2-0.2,0.2-0.4s-0.2-0.1-0.3-0.1c-0.4,0-0.8-0.1-1.2-0.1c-0.3,0-0.3,0-0.4,0.3
		c-0.1-0.1,0-0.3,0-0.4C13.1,34.4,13,34.2,13.2,34.2z"/>
	<path class="st10" d="M46.5,50.1c0-0.1-0.3-0.1-0.2-0.2c0.1-0.1,0.2-0.3,0.4-0.2c0.2,0,0.5,0.1,0.7,0.1c0.3,0,0.5,0.3,0.8,0
		c0,0,0.1,0,0.1,0.1c0.1,0.1,0.3,0.3,0.5,0.5c-0.7-0.1-1.4-0.2-2-0.3C46.7,49.9,46.6,50,46.5,50.1z"/>
	<path class="st11" d="M36.3,15.3c-0.3,0-0.3,0.1-0.2,0.3s0.1,0.4,0.3,0.5c0.1,0.1,0,0.1,0,0.2c0,0.3-0.1,0.5-0.1,0.8
		c0,0.2,0.1,0.2,0.2,0.2c-0.3,0-0.5,0-0.7-0.1c0.4-0.2,0.3-0.6,0.3-0.8c0-0.4-0.2-0.9-0.6-1.2C35.6,15.2,35.9,15.2,36.3,15.3z"/>
	<path class="st7" d="M39.7,16c0.2,0,0.3,0.1,0.4,0.3c0.2,0.5,0.2,1,0.5,1.4c0.1,0.1-0.1,0.4-0.2,0.7c-0.2-0.8-0.5-1.5-0.7-2.2
		C39.5,16.1,39.5,16,39.7,16z"/>
	<path class="st12" d="M14.9,42.3c-0.3,0.1-0.6,0-0.8,0.5c-0.1-0.2-0.1-0.4-0.2-0.6H14c0.5-0.1,1-0.4,1.6-0.5c0.2,0,0.1-0.2,0.1-0.4
		c0.2,0.2,0.2,0.4,0.3,0.6c0,0.1,0,0.1-0.1,0.1c-0.2,0.1-0.5,0.1-0.7,0.2C15.1,42.3,15.1,42.4,14.9,42.3z"/>
	<path class="st13" d="M47.1,19.9c0.1,0.1,0.3,0.2,0.4,0.4c-0.2-0.1-0.3,0-0.4,0.1c-0.3,0.5-0.8,0.7-1,1.3c0.1,0,0,0,0,0
		c-0.4-0.3-0.4-0.3-0.1-0.7C46.4,20.7,46.7,20.4,47.1,19.9C47,20,47,19.9,47.1,19.9z"/>
	<path class="st6" d="M49.2,22.1c-0.2,0.1-0.4,0.3-0.6,0.5c0,0.1,0,0.1-0.1,0.1c-0.3,0.2-0.5,0.4-0.7,0.6c-0.1-0.1-0.2-0.2-0.3-0.3
		c0.5-0.4,1-0.8,1.4-1.3c0.2-0.2,0.2,0.1,0.3,0.2C49.2,22,49.2,22,49.2,22.1z"/>
	<path class="st7" d="M27.4,18.2c-0.2,0.1-0.4,0.1-0.6,0.2c0.1-0.2-0.3-1.6-0.6-1.9c0.1-0.1,0.3-0.1,0.4-0.2c0,0,0.1,0,0,0.1
		c0,0.2,0.1,0.5,0.2,0.7c0,0.1,0.1,0.1,0.2,0.1s0.1,0,0.1,0.1c-0.1,0-0.1,0-0.2,0.1C27,17.5,27.3,18.1,27.4,18.2
		C27.5,18.2,27.5,18.2,27.4,18.2C27.5,18.2,27.5,18.2,27.4,18.2z"/>
	<path class="st14" d="M19.7,20.6c0.3,0.5,0.7,0.9,1.1,1.3c0.2,0.2,0.3,0,0.5-0.1c-0.3,0.4-0.6,0.5-0.9,0.2s-0.5-0.6-0.8-0.8
		c-0.1-0.1-0.2-0.2-0.3-0.2C19.5,20.8,19.6,20.7,19.7,20.6z"/>
	<path class="st15" d="M16.3,24.6c0.5,0.4,1,0.7,1.5,1c0.2,0.1,0.1,0.2,0,0.3c-0.1,0.1-0.1,0.1-0.2,0c-0.4-0.3-0.9-0.6-1.3-0.9
		c-0.2-0.1-0.2,0.1-0.4,0.1C16.1,24.9,16.2,24.8,16.3,24.6z"/>
	<path class="st13" d="M52.6,44.6c0,0.2-0.1,0.4-0.2,0.4c-0.4-0.5-1-0.5-1.5-0.8c-0.2-0.1-0.3,0-0.4,0.1c0.1-0.2,0.1-0.5,0.3-0.6
		c0.2,0.2,0.5,0.3,0.7,0.3h0.1c0,0.2,0.2,0.2,0.3,0.3s0.3,0.1,0.4,0.2C52.5,44.6,52.6,44.6,52.6,44.6z"/>
	<path class="st16" d="M18.6,24.8c-0.1,0.2-0.2,0.3-0.3,0.5c0-0.2-0.5-0.7-0.7-0.7s-0.1,0-0.1-0.1c-0.1-0.2-0.6-0.5-0.8-0.4
		c0.3-0.4,0.3-0.4,0.7-0.2C17.8,24.2,18.1,24.4,18.6,24.8C18.6,24.7,18.6,24.7,18.6,24.8z"/>
	<path class="st15" d="M49.8,49.2c-0.1,0.2-0.3,0.3-0.4,0.5c-0.5-0.5-1-0.9-1.5-1.3c0.1-0.1,0.2-0.2,0.3-0.3
		c0.4,0.5,0.9,0.8,1.3,1.2C49.6,49.4,49.7,49.1,49.8,49.2z"/>
	<path class="st17" d="M27.1,53.5c0.5,0.1,0.7,0.3,0.5,0.7c-0.1,0.2-0.2,0.2-0.4,0.3c0.6,0.3-0.1,0.8,0.3,1.2
		c-0.4,0-0.5-0.1-0.4-0.6c0.1-0.4,0.1-0.6-0.3-0.7v-0.1C27.3,54.3,27.4,54.2,27.1,53.5z"/>
	<path class="st16" d="M50,24.5l-0.1-0.1c-0.2,0.2-0.6,0.3-0.7,0.6c-0.1-0.1-0.2-0.3-0.3-0.4c0.5-0.3,1-0.7,1.5-1
		c0.1,0,0.1-0.2,0.2-0.1c0.1,0.1,0.2,0.2,0.2,0.3c0,0.1-0.1-0.1-0.2,0C50.4,24.1,50,24.1,50,24.5L50,24.5z"/>
	<path class="st18" d="M23.6,17.8c0.2,0.6,0.6,1.2,1,1.8c-0.1,0.1-0.3,0.2-0.3,0.2c-0.3-0.6-0.6-1.2-1-1.7
		C23.3,17.9,23.4,17.9,23.6,17.8z"/>
	<path class="st16" d="M19.9,23.2c-0.1,0.1-0.2,0.2-0.3,0.4c0-0.3-0.2-0.3-0.4-0.4c-0.2-0.1-0.3,0.1-0.4,0.2
		c0.1-0.4-0.2-0.4-0.4-0.4c0,0-0.1,0-0.1-0.1c-0.1-0.2-0.2-0.3-0.3-0.5c0,0,0,0,0.1-0.1C18.6,22.6,19.3,22.9,19.9,23.2
		C19.9,23.2,20,23.2,19.9,23.2z"/>
	<path class="st13" d="M50.8,46c0.1,0.4,0.5,0.4,0.8,0.6c0,0.1-0.1,0.3-0.2,0.3c-0.6-0.4-1.1-0.7-1.7-1c0.1-0.1,0.2-0.2,0.3-0.4l0,0
		C50.1,45.9,50.4,45.9,50.8,46L50.8,46z"/>
	<path class="st7" d="M24.7,53.5c-0.2-0.1-0.4,0-0.4,0.2c-0.1,0.2-0.2,0.4-0.3,0.6c-0.1-0.1-0.3-0.1-0.3-0.2
		c0.3-0.6,0.6-1.2,0.9-1.8c0.1,0,0.2,0.1,0.3,0.2c-0.1,0.2-0.2,0.4-0.3,0.6C24.5,53.3,24.6,53.4,24.7,53.5L24.7,53.5z"/>
	<path class="st18" d="M32.5,56.7c-0.1,0-0.2,0-0.2-0.2c0-0.5-0.2-0.6-0.7-0.5c-0.1-0.1,0.1-0.2,0.1-0.2c0.4,0,0.3-0.2,0.3-0.4
		c0-0.1,0-0.1-0.1-0.2c0.1-0.2,0.1-0.4,0.2-0.6h0.1c0.1,0.6,0.3,1.3,0.4,1.9C32.7,56.8,32.6,56.7,32.5,56.7z"/>
	<path class="st16" d="M40.9,53.5c0.1,0.3,0.1,0.6,0.4,0.7l0,0l0,0c-0.1,0.3,0.2,0.5,0.2,0.8c0,0.1,0.1,0.1,0,0.2
		c-0.1,0.1-0.2,0.2-0.4,0.1c-0.1-0.1,0.1-0.1,0.1-0.1c-0.2-0.5-0.4-1.1-0.8-1.6h-0.1C40.5,53.5,40.6,53.4,40.9,53.5
		C40.9,53.4,40.9,53.4,40.9,53.5z"/>
	<path class="st19" d="M14.5,28.1c0-0.1,0.1-0.2,0.1-0.3c0.6,0.3,1.2,0.6,1.9,0.8c0,0.1-0.1,0.3-0.2,0.4c-0.6-0.3-1.2-0.6-1.8-0.7
		C14.5,28.2,14.5,28.2,14.5,28.1z"/>
	<path class="st20" d="M28.9,15.8c0.3-0.1,0.5-0.2,0.7,0.1c0.2,0.2,0.2,0.5-0.1,0.7c0.4,0,0.5,0.2,0.6,0.4c0,0.2,0.1,0.4,0.4,0.4
		c-0.4,0.2-0.5,0.2-0.7-0.3c-0.1-0.3-0.2-0.6-0.6-0.4v-0.1C29.4,16.2,29.4,16,28.9,15.8L28.9,15.8z"/>
	<path class="st16" d="M46.7,22.1c0.2-0.2,0.4-0.4,0.6-0.7v-0.1c0.3,0,0.3-0.3,0.5-0.4c0.2-0.2,0.3-0.3,0.5,0V21
		c-0.5,0.3-0.8,0.8-1.2,1.2c-0.2,0.2-0.2,0.1-0.4,0C46.7,22.2,46.7,22.2,46.7,22.1z"/>
	<path class="st18" d="M44.6,51.3c0.2-0.1,0.3-0.2,0.4-0.3c0.3,0.4,0.6,0.8,1,1.2c0.2,0.2,0.4,0.1,0.7,0c-0.4,0.5-0.7,0.5-1,0.1
		c-0.2-0.3-0.4-0.6-0.7-0.8C44.9,51.4,44.8,51.2,44.6,51.3z"/>
	<path class="st13" d="M20.9,51c-0.4,0.2-0.6,0.6-0.5,0.9c-0.2-0.1-0.3-0.3-0.5-0.4c0.5-0.4,0.8-0.9,1.2-1.4c0,0,0.1-0.1,0.2-0.1
		c0.2,0.1,0.2,0.2,0,0.3C21.2,50.5,21.1,50.7,20.9,51C21,50.9,21,51,20.9,51z"/>
	<path class="st19" d="M45.4,20.8c0.3-0.2,0.2-0.4,0.1-0.6c-0.1-0.2-0.2-0.3-0.3-0.5c-0.1-0.3-0.1-0.5,0.2-0.7
		c0.2-0.1,0.5-0.2,0.7,0.1l0,0c-0.1,0-0.1,0-0.2-0.1c-0.1,0-0.3,0-0.4,0.1c-0.1,0.1-0.1,0.3,0,0.4s0.1,0.3,0.2,0.4
		c0.1,0.2,0.2,0.5,0,0.7c-0.1,0.2-0.4,0.3-0.6,0.3C45.2,20.8,45.3,20.9,45.4,20.8z"/>
	<path class="st13" d="M26.8,54.4L26.8,54.4c-0.3,0.3-0.3,0.7-0.4,1c-0.1-0.1-0.3-0.1-0.5-0.2c0.2,0,0.3-0.1,0.4-0.3
		c0.1-0.4,0.3-0.8,0.4-1.2c0.1-0.5,0.3-0.3,0.5-0.2C27,53.8,26.9,54.1,26.8,54.4z"/>
	<path class="st7" d="M28,55.9c0.4-0.5,0.4-1.2,0.6-1.7c0.1-0.2-0.1-0.2-0.2-0.2c0.2,0,0.4,0.1,0.6,0.1c-0.2,0.5-0.3,1-0.5,1.5
		C28.4,56,28.5,56,28,55.9z"/>
	<path class="st13" d="M25.7,18.1c0,0.3,0.1,0.6,0.1,0.9c-0.5-0.5-1.1-1-1.6-1.5c0.3-0.2,0.3-0.2,0.5,0s0.4,0.4,0.6,0.6
		C25.4,18.2,25.5,18.4,25.7,18.1C25.6,18.1,25.6,18.1,25.7,18.1z"/>
	<path class="st13" d="M32.2,15.2c0.2,0,0.4,0,0.5,0c-0.2,0.2-0.1,1.8,0.2,2c-0.2,0-0.4,0.1-0.6,0.1C32.4,16.5,32.3,15.9,32.2,15.2
		L32.2,15.2L32.2,15.2z"/>
	<path class="st7" d="M52.8,27.5c0.1,0.1,0.1,0.3,0.2,0.4c0,0.1,0,0.1-0.1,0.1c-0.6,0.2-1.2,0.4-1.7,0.8c0-0.1-0.1-0.3-0.2-0.5
		c0.2,0.1,0.3,0,0.5-0.1c0.4-0.2,0.8-0.3,1.1-0.5C52.7,27.8,52.8,27.7,52.8,27.5L52.8,27.5z"/>
	<path class="st13" d="M43.1,52.9c0-0.2-0.1-0.4-0.1-0.6c0.6,0.5,1.1,1,1.6,1.4l0,0c-0.2,0.1-0.4,0.3-0.6-0.1
		c-0.1-0.2-0.3-0.3-0.5-0.2v-0.1c0-0.2-0.1-0.3-0.2-0.4C43.3,52.9,43.2,52.9,43.1,52.9z"/>
	<path class="st9" d="M16.6,43.4c0.1,0.1,0.1,0.3,0.2,0.4h-0.1c-0.2,0-0.4,0.2-0.6,0.3C16,44.2,16,44.2,16,44.3h-0.1
		c0-0.1-0.1-0.2-0.2-0.1c-0.2,0.1-0.5,0.2-0.7,0.4l0,0c-0.1-0.1-0.2-0.3-0.2-0.4c0.6-0.2,1.1-0.5,1.7-0.7
		C16.5,43.6,16.5,43.4,16.6,43.4z"/>
	<path class="st13" d="M29.1,16.6C29.1,16.7,29.1,16.7,29.1,16.6c-0.1,0.4,0.1,0.9,0.3,1c-0.1,0.1-0.2,0.1-0.3,0.1
		c-0.1,0-0.1,0-0.2-0.1c-0.1-0.5-0.3-1-0.4-1.5c0-0.2-0.1-0.2-0.3-0.3c0.2,0,0.4-0.2,0.6-0.1l0,0C28.9,16,29,16.3,29.1,16.6z"/>
	<path class="st19" d="M21,52.1c0.1-0.1,0.2-0.3,0.3-0.4c0.2-0.2,0.2-0.3-0.1-0.5c0.5,0.3,0.6-0.1,0.7-0.3c0.2-0.3,0.3-0.3,0.5,0
		c0,0.1,0,0.1-0.1,0.1c-0.4,0.4-0.7,0.9-1.1,1.3c0,0,0,0.1-0.1,0.1c-0.1-0.1-0.1-0.1-0.2-0.2C20.9,52.2,21,52.2,21,52.1z"/>
	<path class="st13" d="M41.6,53c0.1-0.1,0.2-0.1,0.5-0.2c-0.2,0.1-0.1,0.3,0,0.4c0.2,0.4,0.3,0.8,0.5,1.2c0.1,0.2,0.1,0.3-0.2,0.4
		h-0.1c-0.1-0.3-0.1-0.7-0.5-0.9c0.3-0.3-0.2-0.5-0.1-0.8C41.6,53.1,41.6,53.1,41.6,53z"/>
	<path class="st9" d="M24.8,54.6c0.3-0.5,0.6-1.1,0.8-1.7c0.1,0.1,0.3,0.2,0.5,0.3c-0.3,0.1-1,1.3-1,1.7c-0.1,0-0.2-0.1-0.4-0.1
		C24.8,54.7,24.8,54.6,24.8,54.6z"/>
	<path class="st15" d="M14.6,40.6c0.3,0.1,0.5-0.1,0.8-0.1c0.1,0,0.2-0.1,0.2,0.1c0,0.1,0.1,0.2-0.1,0.3c-0.5,0.1-1,0.2-1.5,0.3
		c-0.2,0-0.3,0.1-0.2,0.3c-0.1-0.1-0.1-0.1-0.1-0.1c-0.1-0.5-0.1-0.5,0.4-0.6C14.3,40.7,14.5,40.8,14.6,40.6
		C14.6,40.5,14.6,40.5,14.6,40.6z"/>
	<path class="st16" d="M18.9,47.6c-0.4,0.3-0.8,0.6-1.2,0.9c-0.1,0.1-0.2,0.1-0.1,0.2h-0.1c-0.2-0.2-0.3-0.3,0-0.5
		c0.4-0.3,0.8-0.6,1.2-0.9C18.9,47.1,18.9,47.4,18.9,47.6C19,47.6,18.9,47.6,18.9,47.6z"/>
	<path class="st21" d="M53.4,42.3C53.2,42,53,42,52.7,42.2c-0.1,0.1-0.1,0.2-0.2,0.2c-0.2,0.2-0.4,0.4-0.8,0.2
		c-0.3-0.1-0.3-0.4-0.3-0.7c0.1,0,0.1,0,0.1,0.1c0,0.2,0,0.3,0.2,0.4c0.2,0.1,0.3-0.1,0.4-0.2c0.1-0.1,0.2-0.2,0.3-0.3
		C52.8,41.6,53.2,41.7,53.4,42.3C53.5,42.3,53.4,42.3,53.4,42.3z"/>
	<path class="st7" d="M44,18.5c0.1-0.1,0.2-0.2,0.4-0.3c0,0,0.1-0.1,0.2-0.1c-0.2,0.7-0.3,1.4-0.5,2.1c-0.3-0.1-0.4-0.2-0.3-0.5
		c0.1-0.1,0.1-0.3,0.1-0.5v-0.1C44,19,44.1,18.8,44,18.5z"/>
	<path class="st18" d="M23.1,51.9c0.1-0.1,0.3-0.2,0.5-0.4c-0.2,0.8-0.4,1.5-0.6,2.2c-0.3-0.1-0.3-0.1-0.2-0.5
		c0-0.2,0.2-0.3-0.1-0.5c0-0.1,0-0.1,0.1-0.1c0.2-0.1,0.1-0.3,0.2-0.4C23,52.1,23,52,23.1,51.9z"/>
	<path class="st22" d="M43,17.4c-0.2,0.6-0.6,1.1-0.8,1.7c-0.1,0-0.2-0.1-0.4-0.2c0.3-0.6,0.6-1.1,0.9-1.7v-0.1
		c0.1,0.1,0.2,0.1,0.4,0.2C43.1,17.4,43,17.4,43,17.4z"/>
	<path class="st6" d="M13.4,39.7c0.6-0.1,1.3-0.2,1.9-0.4c0,0.1,0.1,0.3,0.1,0.5c-0.3-0.2-0.6,0.1-0.9,0.1L14.4,40
		c-0.3,0-0.5,0.1-0.8,0.1c-0.2,0-0.1,0.2-0.1,0.3c-0.1-0.2-0.1-0.3-0.1-0.4C13.4,39.8,13.4,39.7,13.4,39.7z"/>
	<path class="st7" d="M29.8,54.3c0.1,0,0.1,0,0.2,0s0.1,0.1,0.1,0.2c0,0.6-0.2,1.1-0.3,1.7c0,0,0,0.1-0.1,0.1c-0.2,0-0.3,0-0.4-0.1
		c0.3-0.5,0.3-1.1,0.4-1.7C29.8,54.5,29.7,54.4,29.8,54.3z"/>
	<path class="st14" d="M15.1,38.2c0-0.2-0.1-0.3-0.3-0.3s-0.3,0.2-0.3,0.3c-0.1,0.2-0.1,0.4-0.2,0.6c-0.2,0.4-0.6,0.4-0.9,0.1l0,0
		c0.3,0.1,0.5,0,0.6-0.3c0-0.1,0.1-0.2,0.1-0.3c0.1-0.3,0.2-0.5,0.5-0.5C14.9,37.7,15.1,37.8,15.1,38.2
		C15.2,38.2,15.2,38.2,15.1,38.2z"/>
	<path class="st15" d="M48.5,47.6c0.1-0.2,0.2-0.3,0.4-0.5c0,0.2,0,0.2,0.2,0.3c0.4,0.1,0.8,0.3,1.2,0.3c0.2,0,0.3,0.3,0.3,0.5
		C49.9,48,49.2,47.7,48.5,47.6z"/>
	<path class="st13" d="M52.5,39.1c0.6,0,1.1,0.3,1.7,0.2h0.1c0,0.2-0.1,0.4-0.1,0.6c0-0.3-0.2-0.3-0.3-0.3c-0.5-0.1-1-0.2-1.5-0.2
		c-0.1,0-0.1,0-0.1-0.1s0-0.2,0-0.3C52.4,39,52.4,39.1,52.5,39.1z"/>
	<path class="st9" d="M52.4,34c0-0.1,0-0.2,0-0.3c0.1,0.1,0.1,0.2,0.3,0.2c1.5-0.1,1.5-0.1,1.6-0.4l0,0c0.1,0.5,0.1,0.5-0.4,0.5
		C53.4,34.1,53,34.1,52.4,34C52.4,34.2,52.5,34.1,52.4,34z"/>
	<path class="st23" d="M52.5,37.5c0.1,0.3,0.4,0.1,0.5,0.2c0.2,0.1,0.3,0,0.5,0s0.4,0,0.6,0c0.2,0,0.3-0.1,0.3-0.2c0,0,0,0,0.1,0
		c0,0.3,0,0.5-0.1,0.8c-0.1-0.2-0.1-0.3-0.3-0.3c-0.5,0-1-0.1-1.6-0.1c-0.2,0-0.1-0.1-0.1-0.2C52.5,37.7,52.5,37.6,52.5,37.5
		L52.5,37.5z"/>
	<path class="st19" d="M37.5,54.4c0.1,0,0.1,0,0.2,0c0.1,0,0.1,0,0.1,0.1c0.2,0.6,0.2,1.2,0.5,1.8c-0.1,0-0.3,0.1-0.4,0.1
		c-0.1,0-0.1,0-0.1-0.1c0-0.5-0.2-1-0.3-1.5c0-0.1,0-0.1,0-0.2C37.4,54.4,37.4,54.4,37.5,54.4z"/>
	<path class="st24" d="M38.2,17.7L38.2,17.7c-0.2,0-0.2-0.1-0.2-0.1c0.1-0.5,0.3-1.1,0.4-1.6c0.1-0.1,0-0.2,0.1-0.2
		c0.3,0,0.3,0.1,0.3,0.3c-0.2,0.5-0.3,1-0.4,1.6C38.3,17.6,38.3,17.7,38.2,17.7z"/>
	<path class="st6" d="M31.6,17.1c0.2-0.3,0-0.5-0.3-0.6c-0.1-0.1-0.3-0.1-0.5-0.1c-0.2-0.1-0.4-0.2-0.4-0.4c0-0.2,0-0.4,0.3-0.6v0.1
		c-0.1,0.3-0.1,0.5,0.3,0.6c0.1,0,0.3,0.1,0.4,0.1C31.9,16.3,32,16.7,31.6,17.1C31.6,17.2,31.6,17.1,31.6,17.1z"/>
	<path class="st18" d="M35.7,56.2c-0.1-0.5-0.1-1-0.2-1.5v-0.1c0.1,0,0.2,0,0.4,0c0,0,0,0,0,0.1l0,0c0,1,0.1,1.7,0.4,1.9
		c-0.2,0-0.3,0-0.5,0C35.6,56.6,35.8,56.3,35.7,56.2z"/>
	<path class="st15" d="M20.2,49.1c-0.4,0-0.4,0.2-0.3,0.5c0,0.1,0.1,0.2,0.1,0.3c0.2,0.6-0.1,0.9-0.7,0.9c0-0.2,0.2,0,0.3-0.1
		c0.2-0.1,0.2-0.3,0.1-0.5c-0.1-0.1-0.1-0.3-0.2-0.4C19.4,49.2,19.7,48.9,20.2,49.1C20.2,49,20.2,49.1,20.2,49.1z"/>
	<path class="st16" d="M53.6,41.2c-0.6-0.1-1.1-0.3-1.7-0.4c-0.1-0.1,0.1-0.3,0.1-0.4c0.6,0.2,1.2,0.3,1.8,0.5c0,0,0.1,0,0.2,0.1
		v0.1C53.8,41.3,53.7,41.3,53.6,41.2z"/>
	<path class="st25" d="M33.9,54.8c-0.2,0.2-0.3,0.4-0.2,0.6c0.1,0.4-0.1,0.9,0.3,1.3h-0.1c-0.4-0.2-0.6-0.6-0.6-1
		C33.3,55.2,33.4,54.9,33.9,54.8C33.9,54.7,33.9,54.8,33.9,54.8L33.9,54.8z"/>
	<path class="st26" d="M34.2,15.3c0,0.5,0,1,0,1.5c0,0.2,0,0.4,0.3,0.4c-0.3,0-0.6,0-0.9,0c0.1-0.1,0.2-0.1,0.3-0.1
		c0.1-0.4,0-0.8,0.1-1.2c0-0.2,0-0.4,0-0.5s0-0.2,0.1-0.2C34.1,15.1,34.2,15.1,34.2,15.3z"/>
	<path class="st27" d="M48.5,22.7l0.1-0.1c0.4,0.1,0.8,0,1.4,0c-0.1,0.1-0.1,0.1-0.1,0.1c-0.3,0.2-0.9-0.3-1,0.3
		c-0.1,0.4-0.3,0.8-0.2,1.2c0,0-0.1,0-0.1-0.1c-0.1-0.2-0.4-0.3-0.2-0.7C48.4,23.3,48.5,23,48.5,22.7z"/>
	<path class="st28" d="M14.9,42.3c0.1,0,0.1-0.2,0.2-0.1c0.1,0.2,0.4,0.1,0.5,0.3l0,0c-0.2-0.1-0.4,0-0.5,0.2
		c-0.2,0.3-0.5,0.6-0.6,1l0,0c-0.1-0.3-0.2-0.5,0.1-0.8C14.7,42.8,14.9,42.6,14.9,42.3z"/>
	<path class="st19" d="M14.9,36.9c-0.2,0.4-0.6,0.5-1,0.5s-0.7-0.2-0.8-0.6c0-0.1,0-0.1,0.1-0.1C13.7,37.1,14.3,36.9,14.9,36.9
		C14.9,36.8,15,36.8,14.9,36.9z"/>
	<path class="st29" d="M13.1,36.3c0.3-0.7,1.3-0.8,1.8-0.2c0,0.1,0,0.1-0.1,0.1c-0.2,0-0.4,0-0.6,0C13.9,36.2,13.6,36.2,13.1,36.3
		C13.1,36.3,13.1,36.3,13.1,36.3z"/>
	<path class="st30" d="M30.8,54.6c0.4,0.2,0.5,0.5,0.4,0.9c0,0.4-0.2,0.7-0.6,0.9c-0.1,0-0.1,0-0.1-0.1c0-0.3,0.2-0.4,0.2-0.7
		c0.1-0.3,0.1-0.6-0.1-1C30.7,54.6,30.7,54.5,30.8,54.6z"/>
	<path class="st31" d="M51.7,44.1c-0.3,0-0.7-0.1-0.7-0.4c0-0.1,0-0.1,0-0.2c0.2-0.2,0.5-0.2,0.7,0C51.8,43.7,51.9,43.9,51.7,44.1z"
		/>
	<path class="st32" d="M26.8,54.4c0-0.3,0.1-0.6,0.3-0.8l0,0c0.1,0.1,0.3,0.2,0.3,0.4C27.4,54.3,27.2,54.5,26.8,54.4z"/>
	<path class="st12" d="M51.9,43.7c0.2-0.2,0.4-0.2,0.7-0.1c0.1,0.1,0.3,0.1,0.5,0C53,44,52.9,44.1,52.6,44c-0.2-0.1-0.4-0.1-0.6-0.1
		C51.9,43.8,51.9,43.8,51.9,43.7z"/>
	<path class="st33" d="M51.9,43.7L51.9,43.7c0,0.2,0,0.3-0.1,0.4c0,0,0,0-0.1,0c0.1-0.5-0.2-0.7-0.7-0.5c0-0.2,0.2-0.4,0.4-0.4
		C51.7,43.2,51.9,43.4,51.9,43.7z"/>
	<path class="st34" d="M34.2,15.3c-0.2-0.2-0.3-0.1-0.3,0.1c0,0.4,0,0.9,0,1.3c0,0.1,0.1,0.2-0.1,0.3c0-0.5,0-1,0-1.5
		c0-0.3-0.1-0.3-0.3-0.3c-0.1,0-0.3,0.1-0.4-0.1c0.2-0.2,0.4-0.1,0.7-0.1c0.4,0,0.7,0,1.1,0.1c-0.1,0.1-0.3,0-0.4,0.1
		C34.4,15.2,34.3,15.3,34.2,15.3z"/>
	<path class="st35" d="M34.3,56.6c0.2-0.2,0.2-0.5-0.1-0.7c0.3,0,0.6,0,0.9,0C34.7,56.1,34.9,56.7,34.3,56.6
		C34.4,56.7,34.3,56.7,34.3,56.6z"/>
	<path class="st36" d="M54.5,37.5C54.4,37.5,54.4,37.5,54.5,37.5c0-0.4-0.1-0.7-0.6-0.9c0.1,0,0.3,0,0.4,0c0.2,0,0.3,0.1,0.2,0.3
		C54.5,37.1,54.5,37.3,54.5,37.5z"/>
	<path class="st37" d="M31.5,17.3c0,0-0.1,0-0.1,0.1c-0.6,0.1-0.7,0-0.8-0.7C30.8,17.1,31,17.4,31.5,17.3
		C31.5,17.2,31.5,17.3,31.5,17.3z"/>
	<path class="st38" d="M53.6,37.7c-0.2,0-0.3,0.1-0.5,0c0.1,0,0.3,0.1,0.3-0.1c0-0.3-0.2-0.3-0.4-0.5c0.3,0,0.6,0,0.9,0.1
		C53.6,37.2,53.4,37.3,53.6,37.7z"/>
	<path class="st39" d="M52.6,35.4L52.6,35.4L52.6,35.4C52.5,35.4,52.5,35.3,52.6,35.4c-0.2-0.7-0.1-0.8,0.6-0.6
		C52.8,34.8,52.5,35,52.6,35.4z"/>
	<path class="st40" d="M42.7,17.1C42.7,17.2,42.7,17.2,42.7,17.1c-0.4-0.2-0.6,0-0.9,0.4C42,16.8,42,16.8,42.7,17.1z"/>
	<path class="st41" d="M13.2,38.5c-0.2-0.6-0.1-0.8,0.6-0.7C13.4,38,13.2,38.1,13.2,38.5z"/>
	<path class="st42" d="M44,18.5c0.2,0.3,0,0.5-0.1,0.7c-0.1,0-0.2-0.1-0.3-0.2v-0.1l0,0c0.1-0.1,0.2-0.2,0.3-0.3
		C44,18.6,44,18.6,44,18.5z"/>
	<path class="st43" d="M52.5,39.1c-0.1,0-0.1,0-0.2-0.1c0-0.1,0-0.2,0-0.3c0.1-0.5,0.2-0.5,0.7-0.3C52.5,38.6,52.4,38.7,52.5,39.1z"
		/>
	<path class="st44" d="M51.6,45.4c0.6,0.3,0.6,0.3,0.2,0.8C51.9,45.9,51.9,45.6,51.6,45.4z"/>
	<path class="st45" d="M18.4,22.9c0.2,0,0.4,0.1,0.5,0.2c0,0.1-0.2,0.2-0.1,0.3l0,0c-0.1,0-0.2,0.1-0.2,0c0,0,0-0.1-0.1-0.1
		C18.5,23.2,18.3,23.1,18.4,22.9z"/>
	<path class="st46" d="M52.3,39.3L52.3,39.3c-0.1,0.5,0.2,0.7,0.5,0.8c-0.1,0.1-0.2,0-0.3,0c-0.3,0-0.3-0.2-0.3-0.4
		C52.2,39.6,52.2,39.4,52.3,39.3z"/>
	<path class="st47" d="M30.8,15.5C30.8,15.4,30.8,15.4,30.8,15.5c0.1-0.2,0.3-0.2,0.5-0.2c0.4,0,0.4,0.1,0.4,0.6
		C31.4,15.4,31.1,15.3,30.8,15.5z"/>
	<path class="st37" d="M50,24.5L50,24.5c0.2,0.1,0.3,0.2,0.6,0c-0.2,0.3-0.5,0.4-0.7,0.6C49.9,24.9,50.2,24.8,50,24.5z"/>
	<path class="st48" d="M32.1,55.3c0,0.1,0,0.1,0,0.2c0,0.1,0.1,0.3,0,0.3c-0.1,0.1-0.3,0.1-0.4-0.1l0,0c0-0.1,0.1-0.2,0.1-0.3
		C31.9,55.4,31.9,55.2,32.1,55.3z"/>
	<path class="st49" d="M53.4,42.8c-0.2,0.4-0.3,0.5-0.8,0.2C52.9,42.9,53.1,42.9,53.4,42.8C53.4,42.7,53.4,42.7,53.4,42.8z"/>
	<path class="st50" d="M28.1,17.3c0.1,0.2,0.2,0.4,0.2,0.6c0,0.1-0.3,0.2-0.4,0.1C28.1,17.8,28.1,17.6,28.1,17.3z"/>
	<path class="st37" d="M52.8,27.5C52.8,27.6,52.8,27.6,52.8,27.5c-0.2-0.3-0.5-0.3-0.9-0.2C52.5,26.9,52.6,26.9,52.8,27.5z"/>
	<path class="st51" d="M18.4,46.7c0.1,0.1,0.2,0.2,0.3,0.4c-0.4-0.1-0.4-0.1-0.9,0c0.2-0.2,0.3-0.3,0.5-0.4H18.4z"/>
	<path class="st52" d="M15,34.6c0-0.1,0-0.2,0-0.3c0-0.4-0.1-0.6-0.5-0.7c0.1,0,0.2,0,0.3,0c0.2,0,0.3,0.1,0.3,0.3
		S15.1,34.4,15,34.6z"/>
	<path class="st53" d="M15.4,45.3c0.2,0.1,0.4,0.1,0.6,0.1C15.6,45.7,15.4,45.7,15.4,45.3C15.3,45.3,15.3,45.2,15.4,45.3z"/>
	<path class="st54" d="M49.4,25.4c0.3,0.1,0.5,0.2,0.8,0C49.9,25.9,49.7,25.9,49.4,25.4z"/>
	<path class="st55" d="M27.2,16.2L27.2,16.2c0.5-0.2,0.6-0.2,0.7,0.5C27.7,16.4,27.5,16.2,27.2,16.2C27.1,16.3,27.1,16.3,27.2,16.2
		L27.2,16.2z"/>
	<path class="st56" d="M23,52.2c0,0.1-0.1,0.3-0.1,0.4c0,0.1-0.1,0.1-0.2,0.1c-0.3-0.1-0.3-0.2-0.1-0.4c0,0,0,0,0-0.1
		C22.8,52.3,22.9,52,23,52.2z"/>
	<path class="st17" d="M44.9,20.8c-0.5-0.3-0.5-0.4-0.2-0.8C44.7,20.3,44.7,20.5,44.9,20.8C44.9,20.7,44.9,20.8,44.9,20.8L44.9,20.8
		z"/>
	<path class="st57" d="M20.2,49.1C20.2,49.1,20.2,49,20.2,49.1c0.3,0,0.4,0.2,0.5,0.5c0.1,0.2-0.2,0.2-0.2,0.3
		C20.7,49.5,20.5,49.3,20.2,49.1z"/>
	<path class="st43" d="M16.8,44.7c0.2-0.2,0-0.4,0-0.7l0,0c0.1,0.1,0.1,0.3,0.2,0.4c0.1,0.2,0.1,0.3-0.2,0.4
		C16.8,44.9,16.8,44.8,16.8,44.7z"/>
	<path class="st50" d="M19.2,47.8c0.3,0.4,0.3,0.5-0.3,0.7c0.2-0.2,0.3-0.4,0.2-0.6C19.1,47.7,19.1,47.7,19.2,47.8z"/>
	<path class="st41" d="M51,24.3c0.3,0.4,0.3,0.4-0.2,0.7C50.9,24.8,51.1,24.6,51,24.3C50.9,24.3,51,24.2,51,24.3z"/>
	<path class="st58" d="M52.5,37.1c0-0.5,0-0.5,0.7-0.4C52.9,36.8,52.7,36.8,52.5,37.1C52.6,37.1,52.5,37.1,52.5,37.1z"/>
	<path class="st59" d="M50.2,45.1c0.2-0.5,0.3-0.5,0.7-0.1C50.6,45,50.4,45,50.2,45.1C50.2,45.2,50.2,45.2,50.2,45.1z"/>
	<path class="st60" d="M27.2,17.3C27.2,17.3,27.2,17.2,27.2,17.3c0.1-0.2,0.2-0.3,0.1-0.5c0.2,0.2,0.3,0.4,0.2,0.7
		C27.5,17.3,27.4,17.3,27.2,17.3z"/>
	<path class="st61" d="M46.1,19.2c0.4,0.2,0.4,0.3,0.1,0.7C46.2,19.6,46.2,19.4,46.1,19.2L46.1,19.2z"/>
	<path class="st35" d="M52.9,28.7c0.1-0.1,0.2-0.2,0.2-0.4c0-0.1,0-0.1,0.1-0.1C53.2,28.5,53.5,28.7,52.9,28.7
		C52.9,28.8,52.9,28.8,52.9,28.7z"/>
	<path class="st62" d="M43.4,17.5c0.3,0.1,0.3,0.2-0.1,0.7C43.4,18,43.5,17.8,43.4,17.5C43.3,17.5,43.3,17.5,43.4,17.5z"/>
	<path class="st63" d="M19,50c0,0.1,0,0.3,0,0.4c0,0.1,0,0.1-0.1,0.1c-0.2-0.2-0.3-0.4,0-0.6C19,49.9,19,49.9,19,50z"/>
	<path class="st64" d="M50.8,46L50.8,46c0-0.2,0.1-0.3-0.1-0.5c0-0.1,0-0.1,0.1-0.1c0.1,0.1,0.3,0.2,0.4,0.2c0,0.1,0,0.1-0.1,0.1
		C51,45.7,50.9,45.9,50.8,46z"/>
	<path class="st65" d="M34.5,15.2c0.1-0.1,0.3,0,0.4-0.1c0,0.2,0,0.4,0,0.6C34.8,15.6,34.8,15.3,34.5,15.2z"/>
	<path class="st66" d="M34.4,54.8c0.4,0,0.4,0,0.3,0.5C34.6,55.2,34.6,55,34.4,54.8z"/>
	<path class="st67" d="M33.2,15.2c0.1,0,0.3,0,0.4,0.1c-0.2,0.1-0.3,0.3-0.3,0.5C33.1,15.6,33.1,15.4,33.2,15.2z"/>
	<path class="st68" d="M51.6,41.7c0.1-0.4,0.4-0.2,0.7-0.1C52,41.7,51.8,41.7,51.6,41.7C51.6,41.8,51.6,41.8,51.6,41.7z"/>
	<path class="st50" d="M15.9,44.4C15.9,44.4,16,44.4,15.9,44.4c0.2,0.1,0.3,0.2,0.5,0.1c-0.1,0.2-0.2,0.2-0.4,0.3
		c-0.1,0-0.1,0-0.1-0.1C15.9,44.6,15.9,44.5,15.9,44.4z"/>
	<path class="st69" d="M15.2,38.7c-0.1,0.2-0.3,0.1-0.4,0.1c0.1-0.2,0.3-0.2,0.4-0.4C15.3,38.5,15.2,38.6,15.2,38.7z"/>
	<path class="st70" d="M47.3,50.7c0.2,0.1,0.3,0.3,0.5,0.4v0.1c-0.1,0-0.1,0.2-0.1,0.1C47.7,51.1,47.4,51,47.3,50.7
		C47.3,50.8,47.3,50.8,47.3,50.7z"/>
	<path class="st71" d="M18.9,50.5C18.9,50.4,18.9,50.4,18.9,50.5c0.2,0.1,0.4,0.3,0.7,0.2c-0.1,0.1-0.2,0-0.3,0.1
		C19.1,50.8,19,50.6,18.9,50.5z"/>
	<path class="st67" d="M25.5,17.4c-0.1-0.1,0-0.4-0.2-0.5c-0.1-0.1,0-0.1,0.1-0.1s0.1,0,0.1,0.1C25.6,17.1,25.6,17.3,25.5,17.4
		C25.6,17.5,25.6,17.5,25.5,17.4z"/>
	<path class="st72" d="M20.9,20.3c-0.1-0.1-0.3-0.3-0.4-0.4c-0.1,0,0-0.1,0-0.1s0.1-0.1,0.1,0C20.7,20,20.9,20.1,20.9,20.3z"/>
	<path class="st73" d="M22.7,52.3c-0.1,0.2-0.1,0.3,0.1,0.4c0,0,0,0-0.1,0s-0.2-0.1-0.3-0.1c0,0-0.1,0-0.1-0.1
		C22.4,52.4,22.5,52.3,22.7,52.3z"/>
	<path class="st74" d="M52.2,26.3c0.1,0.1,0.3,0.2,0.2,0.3c0,0.1-0.2,0-0.2-0.1C52.2,26.5,52.2,26.4,52.2,26.3z"/>
	<path class="st75" d="M43.1,19.4c-0.1,0.1,0.1,0.1,0.1,0.3c-0.2,0-0.3-0.1-0.4-0.2C42.9,19.4,43,19.4,43.1,19.4
		C43.1,19.3,43.2,19.4,43.1,19.4z"/>
	<path class="st76" d="M21.5,21c-0.1-0.2-0.3-0.3-0.4-0.5C21.4,20.6,21.5,20.8,21.5,21C21.6,21,21.5,21,21.5,21z"/>
	<path class="st77" d="M30.5,56.2l0.1,0.1c-0.3,0.1-0.6,0.1-0.8,0c0,0,0,0,0-0.1C30,56.2,30.3,56.2,30.5,56.2z"/>
	<path class="st78" d="M16.1,25.9c0.2,0.1,0.3,0.1,0.5,0.3v0.1C16.4,26.2,16.2,26.1,16.1,25.9C16,26,16.1,26,16.1,25.9z"/>
	<path class="st79" d="M47.7,49.1c0.2,0.2,0.3,0.3,0.5,0.5C48,49.6,47.8,49.4,47.7,49.1C47.6,49.2,47.6,49.2,47.7,49.1z"/>
	<path class="st70" d="M43.4,54c0.1,0.1,0,0.4,0.3,0.2c-0.1,0.2-0.2,0.2-0.3,0.2C43.4,54.2,43.4,54.1,43.4,54S43.4,53.9,43.4,54z"/>
	<path class="st76" d="M43.1,19.4C43.1,19.4,43.1,19.3,43.1,19.4c0.1-0.2,0.3-0.4,0.5-0.4c0,0,0,0,0,0.1v0.1
		C43.4,19.1,43.3,19.4,43.1,19.4z"/>
	<path class="st80" d="M39.9,54c-0.1-0.2-0.2-0.2-0.4-0.1c0.1-0.2,0.2-0.2,0.3-0.2C40,53.7,40,53.9,39.9,54z"/>
	<path class="st49" d="M47.7,49.1L47.7,49.1c-0.1,0.1-0.2-0.3-0.5,0c0-0.2,0.1-0.3,0.2-0.3l0.1,0.1C47.6,49,47.6,49.1,47.7,49.1z"/>
	<path class="st81" d="M43.1,52.9c0.1,0,0.1-0.1,0.2,0c0,0.2,0.1,0.3,0,0.5h-0.1C43.2,53.2,43.2,53,43.1,52.9z"/>
	<path class="st82" d="M49.5,46.6c-0.3-0.1-0.2-0.2-0.1-0.3C49.5,46.4,49.5,46.5,49.5,46.6z"/>
	<path class="st83" d="M35.7,56.2c0.1,0.1,0,0.3,0.1,0.4c-0.1,0.1-0.2,0.1-0.4,0C35.7,56.6,35.7,56.4,35.7,56.2z"/>
	<path class="st84" d="M50,26.4c-0.1-0.1-0.1-0.2-0.2-0.3c0.2,0,0.3,0.1,0.4,0.1C50.1,26.2,50.1,26.3,50,26.4z"/>
	<path class="st85" d="M46.7,51.3c-0.2-0.1-0.3-0.3-0.4-0.4c0,0,0,0,0.1,0C46.6,50.9,46.7,51.1,46.7,51.3L46.7,51.3z"/>
	<path class="st86" d="M18.9,24c0.1,0.1,0.2,0.1,0.3,0.1c-0.1,0.1-0.2,0.2-0.3,0.3C19,24.2,18.9,24.1,18.9,24S18.9,23.9,18.9,24z"/>
	<path class="st87" d="M46.7,51.3L46.7,51.3c0.2,0.1,0.3,0.2,0.2,0.4C46.8,51.6,46.8,51.4,46.7,51.3z"/>
	<path class="st88" d="M16.1,25.9C16.1,26,16.1,26,16.1,25.9c-0.2,0-0.4,0-0.5-0.2C15.8,25.7,15.9,25.9,16.1,25.9z"/>
	<path class="st89" d="M23,52.2c-0.1,0-0.2,0.2-0.3,0.1c0.1-0.1,0.2-0.2,0.3-0.3C23.1,52,23.2,52.1,23,52.2z"/>
	<path class="st79" d="M47.3,50.7L47.3,50.7c-0.1,0-0.3-0.2-0.4-0.3C47.1,50.4,47.2,50.6,47.3,50.7z"/>
	<path class="st90" d="M39,55.8c0.1,0.1,0.1,0.2,0.3,0.2c-0.2,0-0.3,0.1-0.4,0.1C39,56,39,55.9,39,55.8z"/>
	<path class="st91" d="M31.4,56.5c0.1-0.1,0.1-0.3,0.2-0.4c0.1,0.2-0.1,0.3-0.1,0.5c0,0.1,0,0.1-0.1,0.1l0,0
		C31.4,56.6,31.4,56.5,31.4,56.5z"/>
	<path class="st92" d="M13.1,36.3L13.1,36.3c0.1,0.2,0.2,0.4,0.1,0.5c0,0,0,0.1-0.1,0.1C13,36.7,13,36.5,13.1,36.3z"/>
	<path class="st93" d="M27.2,16.2C27.2,16.2,27.2,16.3,27.2,16.2c-0.1,0.2-0.3,0.2-0.4,0.2c0,0,0,0,0-0.1
		C26.9,16.3,27,16.2,27.2,16.2z"/>
	<path class="st94" d="M47.3,21.4L47.3,21.4c-0.1,0-0.3-0.1-0.4-0.2c0,0,0-0.1,0.1-0.1C47.1,21.2,47.2,21.2,47.3,21.4z"/>
	<path class="st95" d="M18.6,23.4c0.1,0,0.2,0,0.2,0c-0.1,0.1,0,0.2,0,0.3c0,0.1,0,0.1-0.1,0.1C18.7,23.7,18.5,23.6,18.6,23.4z"/>
	<path class="st96" d="M46.1,50.5c-0.1,0-0.2-0.1-0.3-0.1c0-0.1,0.1-0.2,0.2-0.2C46.1,50.3,46.1,50.4,46.1,50.5L46.1,50.5z"/>
	<path class="st97" d="M44.9,20.8C44.9,20.8,44.9,20.7,44.9,20.8c0.2,0,0.3,0.1,0.5,0c-0.1,0-0.1,0.1-0.2,0.1S44.9,20.9,44.9,20.8z"
		/>
	<path class="st87" d="M15.1,27.1C15.2,27.1,15.2,27.1,15.1,27.1c0.2,0,0.3,0,0.4,0.2C15.4,27.3,15.3,27.2,15.1,27.1z"/>
	<path class="st98" d="M14.8,36.1L14.8,36.1c0.2,0,0.3,0.2,0.2,0.4h-0.1C14.8,36.4,14.7,36.3,14.8,36.1z"/>
	<path class="st71" d="M39.7,16c-0.1,0.1,0,0.2,0,0.2s-0.1,0-0.1,0.1c0,0,0,0-0.1,0c0-0.1,0.1-0.3-0.2-0.3
		C39.5,15.9,39.6,15.9,39.7,16z"/>
	<path class="st99" d="M38.9,55.6c0-0.1-0.1-0.2-0.1-0.4c0.2,0.2,0.2,0.3,0.2,0.4C39,55.6,38.9,55.6,38.9,55.6z"/>
	<path class="st100" d="M22.2,20.4c0.1,0.1,0.2,0.2,0.2,0.4C22.2,20.8,22.2,20.6,22.2,20.4C22.1,20.5,22.1,20.4,22.2,20.4z"/>
	<path class="st72" d="M18.4,22.9c0,0.1,0.1,0.2,0.1,0.4c-0.2-0.1-0.2-0.2-0.3-0.4C18.3,22.9,18.3,22.9,18.4,22.9z"/>
	<path class="st101" d="M21.6,21.5c0-0.2-0.1-0.3,0.1-0.4C21.8,21.3,21.8,21.4,21.6,21.5z"/>
	<path class="st102" d="M13.2,34.2c-0.1,0-0.1,0.2-0.1,0.2c0-0.2,0-0.3,0-0.4C13.2,34,13.2,34.1,13.2,34.2z"/>
	<path class="st103" d="M34.3,56.6C34.4,56.6,34.4,56.7,34.3,56.6c-0.1,0.2-0.3,0.2-0.5,0.1h0.1C34.1,56.7,34.2,56.7,34.3,56.6z"/>
	<path class="st104" d="M40,54.1c0,0.1,0.1,0.2,0.1,0.4C39.9,54.4,39.9,54.3,40,54.1z"/>
	<path class="st105" d="M15.2,38.7c0-0.1,0-0.2-0.1-0.3c0-0.1,0-0.1,0-0.2c0,0,0-0.1,0.1-0.1C15.3,38.3,15.2,38.5,15.2,38.7z"/>
	<path class="st106" d="M40.3,55L40.3,55c-0.1-0.1-0.1-0.2-0.1-0.4C40.2,54.7,40.2,54.9,40.3,55z"/>
	<path class="st107" d="M25.7,18.1C25.7,18.1,25.6,18.2,25.7,18.1c-0.2,0-0.1-0.1-0.1-0.2c0,0,0-0.1,0.1-0.2
		C25.7,17.8,25.7,18,25.7,18.1z"/>
	<path class="st108" d="M43.4,17.5C43.4,17.5,43.4,17.6,43.4,17.5c-0.2,0-0.3-0.1-0.5-0.1c0,0,0-0.1,0.1-0.1
		C43.2,17.3,43.3,17.4,43.4,17.5z"/>
	<path class="st109" d="M29.8,54.3c0,0.1,0,0.2-0.1,0.2c0-0.2-0.2-0.2-0.2-0.3C29.6,54.2,29.7,54.3,29.8,54.3z"/>
	<path class="st110" d="M27.4,18.2L27.4,18.2c0.1-0.2,0.2-0.2,0.3-0.1C27.7,18.2,27.6,18.3,27.4,18.2z"/>
	<path class="st111" d="M22.3,52.5C22.4,52.5,22.4,52.6,22.3,52.5c0,0.1-0.1,0.3-0.3,0.3C22.1,52.6,22.2,52.6,22.3,52.5z"/>
	<path class="st112" d="M38.7,54.9c-0.1-0.1-0.1-0.2-0.1-0.4C38.8,54.6,38.7,54.8,38.7,54.9C38.8,54.9,38.8,54.9,38.7,54.9z"/>
	<path class="st113" d="M43.3,53.4L43.3,53.4c0.1,0,0.2-0.1,0.3,0l0,0c0,0.1-0.2,0.1-0.2,0.2h-0.1C43.3,53.5,43.3,53.5,43.3,53.4z"
		/>
	<path class="st114" d="M49.9,47c0.1,0.1,0.2,0.2,0.2,0.3c0,0,0,0-0.1,0.1C49.9,47.3,49.8,47.2,49.9,47C49.8,47.1,49.8,47,49.9,47z"
		/>
	<path class="st115" d="M15.7,42.5L15.7,42.5c0.1-0.1,0.2,0.1,0.3,0.1C15.9,42.7,15.7,42.6,15.7,42.5z"/>
	<path class="st116" d="M36.7,15.4c0.1-0.1,0.2-0.1,0.3,0.1c-0.1,0.1-0.2,0.1-0.3,0.1C36.8,15.5,36.8,15.4,36.7,15.4z"/>
	<path class="st87" d="M16,46.1l-0.1,0.1c-0.1,0-0.1,0.2-0.2,0c-0.1-0.2,0.1-0.1,0.1-0.1S15.9,46,16,46.1
		C16.1,46.1,16.1,46.1,16,46.1z"/>
	<path class="st117" d="M32.1,55.3c-0.2,0-0.1,0.2-0.2,0.2c0,0-0.1,0-0.1-0.1s0-0.2,0.1-0.2C32,55.2,32.1,55.2,32.1,55.3z"/>
	<path class="st118" d="M16,44.7L16,44.7c0,0.2-0.1,0.3-0.2,0.2C15.7,44.7,15.9,44.8,16,44.7z"/>
	<path class="st119" d="M53.4,42.3C53.4,42.2,53.4,42.2,53.4,42.3c0.2,0.1,0.2,0.2,0.1,0.3l-0.1-0.1C53.4,42.4,53.4,42.3,53.4,42.3z
		"/>
	<path class="st120" d="M16.6,27.8c0.3,0,0.2,0.2,0.1,0.3C16.6,28,16.6,27.8,16.6,27.8C16.5,27.8,16.5,27.7,16.6,27.8z"/>
	<path class="st34" d="M30.8,54.6C30.7,54.6,30.7,54.6,30.8,54.6c-0.2,0.2-0.3,0.1-0.4,0v-0.1C30.5,54.4,30.7,54.5,30.8,54.6z"/>
	<path class="st121" d="M52.4,34c0.1,0.1,0,0.2,0.2,0.2c0,0.1,0,0.1,0,0.2C52.4,34.3,52.4,34.1,52.4,34z"/>
	<path class="st122" d="M39.5,16.3C39.6,16.3,39.6,16.3,39.5,16.3c0.1,0.1,0,0.3-0.1,0.4c0,0-0.1,0-0.1-0.1
		C39.4,16.5,39.4,16.3,39.5,16.3z"/>
	<path class="st118" d="M50.2,45.1C50.2,45.1,50.2,45.2,50.2,45.1c0,0.2,0,0.3-0.2,0.4l0,0C50,45.3,50.1,45.2,50.2,45.1z"/>
	<path class="st123" d="M21.3,50c-0.1,0-0.1,0.1-0.2,0.1c0-0.1-0.1-0.2-0.1-0.3C21.2,49.8,21.2,49.9,21.3,50z"/>
	<path class="st124" d="M46.5,50.1c0.1-0.2,0.2-0.1,0.3-0.1C46.8,50,46.7,50.2,46.5,50.1z"/>
	<path class="st125" d="M46.4,50.8C46.4,50.8,46.3,50.8,46.4,50.8c-0.2-0.1-0.3-0.2-0.3-0.3l0,0C46.3,50.6,46.3,50.7,46.4,50.8z"/>
	<path class="st38" d="M21.8,52.9c0,0,0.1-0.2,0.2,0V53C21.8,53.1,21.8,52.9,21.8,52.9z"/>
	<path class="st126" d="M38.4,15.7c0,0.1,0,0.2-0.1,0.2c0-0.2-0.1-0.2-0.2-0.3C38.3,15.6,38.4,15.6,38.4,15.7z"/>
	<path class="st26" d="M40.8,17c0,0.1,0,0.3-0.2,0.4C40.6,17.2,40.7,17.1,40.8,17L40.8,17z"/>
	<path class="st127" d="M16,27.6c-0.1,0-0.3-0.1-0.4-0.3C15.8,27.3,15.9,27.4,16,27.6C16.1,27.5,16.1,27.5,16,27.6L16,27.6z"/>
	<path class="st128" d="M28.9,17.7c0.1,0,0.1,0.1,0.2,0.1c-0.1,0.1-0.2,0.1-0.4,0.1C28.7,17.7,28.8,17.8,28.9,17.7z"/>
	<path class="st129" d="M22.6,18.7c-0.1-0.1-0.2-0.1-0.3-0.2l0.1-0.1C22.6,18.4,22.6,18.6,22.6,18.7z"/>
	<path class="st71" d="M43.9,18.7c-0.1,0.1-0.2,0.2-0.3,0.3C43.6,18.8,43.8,18.7,43.9,18.7z"/>
	<path class="st77" d="M43.6,19.1L43.6,19.1c0.1-0.1,0.2,0,0.3,0.1l0,0C43.8,19.3,43.7,19.2,43.6,19.1z"/>
	<path class="st130" d="M51.2,25.6c-0.1,0.1-0.1,0.1-0.3,0.2C51,25.5,51.1,25.5,51.2,25.6C51.3,25.5,51.3,25.5,51.2,25.6
		C51.3,25.6,51.3,25.6,51.2,25.6z"/>
	<path class="st131" d="M54.3,39.3C54.2,39.3,54.2,39.3,54.3,39.3c-0.1-0.1-0.1-0.2,0-0.2C54.4,39.2,54.3,39.3,54.3,39.3z"/>
	<path class="st132" d="M14.6,40.6L14.6,40.6L14.6,40.6c-0.1-0.1-0.2-0.3-0.1-0.4l0,0C14.6,40.3,14.6,40.4,14.6,40.6z"/>
	<path class="st133" d="M52.5,37.8c0,0.1,0,0.1,0.1,0.2c0,0.1-0.1,0.2-0.1,0.3C52.4,38,52.4,37.9,52.5,37.8z"/>
	<path class="st134" d="M53.6,41.2c0.1,0,0.2-0.1,0.2-0.1c0,0.1,0,0.2-0.1,0.4C53.7,41.4,53.8,41.3,53.6,41.2z"/>
	<path class="st135" d="M31.9,55.4C31.9,55.5,31.9,55.5,31.9,55.4c0,0.2,0,0.3-0.1,0.3C31.7,55.6,31.8,55.5,31.9,55.4z"/>
	<path class="st61" d="M14.9,36.5C15,36.5,15,36.5,14.9,36.5c0.1,0.2,0.1,0.3,0,0.4l-0.1-0.1C14.8,36.7,14.8,36.6,14.9,36.5z"/>
	<path class="st16" d="M50.7,25.9C50.6,26,50.5,26,50.4,26C50.4,25.9,50.5,25.9,50.7,25.9C50.7,25.8,50.7,25.9,50.7,25.9z"/>
	<path class="st136" d="M15.2,45C15,45,15,44.8,15,44.7l0,0C15.1,44.8,15.2,44.9,15.2,45L15.2,45z"/>
	<path class="st137" d="M43.3,53.6L43.3,53.6c0.1,0.1,0.1,0.2,0.1,0.4c0,0,0,0-0.1,0C43.3,53.9,43.3,53.7,43.3,53.6z"/>
	<path class="st138" d="M16.7,45.7c0,0.1-0.2,0.2-0.3,0.3C16.4,45.7,16.6,45.7,16.7,45.7z"/>
	<path class="st139" d="M17.7,46.7c-0.1,0.1-0.1,0.1-0.3,0.1c0-0.1,0.2-0.2,0.3-0.2V46.7z"/>
	<path class="st140" d="M31.5,56.6L31.5,56.6c0.2-0.1,0.3-0.1,0.3,0C31.7,56.7,31.6,56.7,31.5,56.6z"/>
	<path class="st77" d="M32.5,56.7c0.1,0,0.1,0,0.2-0.1c0.1,0.1,0.2,0,0.3,0.1C32.8,56.8,32.7,56.8,32.5,56.7z"/>
	<path class="st141" d="M51.2,25.6C51.2,25.5,51.3,25.5,51.2,25.6c0-0.2,0.1-0.2,0.2-0.2c0,0.1,0,0.1,0,0.2
		C51.4,25.5,51.3,25.5,51.2,25.6z"/>
	<path class="st96" d="M19,50l-0.1-0.1c0-0.1,0.1-0.2,0.2-0.2C19.1,49.8,19,49.9,19,50z"/>
	<path class="st142" d="M37.8,54.4L37.8,54.4c0-0.2,0.1-0.2,0.3-0.2C37.9,54.3,37.9,54.4,37.8,54.4z"/>
	<path class="st143" d="M52.6,44.6c-0.1,0-0.1,0-0.2,0c0.1,0,0.1-0.1,0.2-0.2C52.7,44.5,52.7,44.6,52.6,44.6z"/>
	<path class="st144" d="M39,17.9c-0.1,0-0.2,0-0.2-0.1C38.9,17.7,39,17.7,39,17.9C39.1,17.8,39.1,17.9,39,17.9z"/>
	<path class="st145" d="M37.5,54.4L37.5,54.4c-0.1,0.1-0.2,0.1-0.3,0.1C37.3,54.4,37.4,54.4,37.5,54.4z"/>
	<path class="st144" d="M51.2,27.2C51.2,27.1,51.2,27.1,51.2,27.2c0.1-0.1,0.1-0.2,0.2-0.2c0.1,0,0.1,0,0.1,0.1
		C51.4,27.1,51.3,27.1,51.2,27.2z"/>
	<path class="st146" d="M51.6,41.7C51.6,41.8,51.7,41.8,51.6,41.7c0,0.2,0,0.2-0.1,0.3c0,0,0-0.1-0.1-0.1
		C51.5,41.9,51.5,41.8,51.6,41.7z"/>
	<path class="st147" d="M51.5,27L51.5,27c0-0.1,0.1-0.2,0.2-0.2c0,0,0.1,0,0.1,0.1C51.7,27,51.6,27,51.5,27z"/>
	<path class="st34" d="M46.7,22.1v0.1c-0.1-0.1-0.2-0.1-0.2-0.2C46.6,22,46.6,22.1,46.7,22.1z"/>
	<path class="st148" d="M16.2,42.7c0.1,0.1,0.1,0.2,0.1,0.3C16.2,42.9,16.2,42.8,16.2,42.7z"/>
	<path class="st149" d="M35.5,54.6L35.5,54.6c-0.1,0-0.2,0.1-0.2,0C35.3,54.6,35.4,54.6,35.5,54.6z"/>
	<path class="st150" d="M22.2,20.4C22.2,20.5,22.1,20.5,22.2,20.4c-0.1,0-0.3-0.1-0.2-0.1C22.1,20.2,22.1,20.4,22.2,20.4z"/>
	<path class="st86" d="M16.8,44.7l0.1,0.1c-0.1,0.1-0.2,0.1-0.3,0.1C16.7,44.8,16.8,44.8,16.8,44.7z"/>
	<path class="st151" d="M20.9,51C20.9,51,20.9,50.9,20.9,51c0.1,0,0.2,0,0.2,0.2C21,51.1,21,51.1,20.9,51z"/>
	<path class="st152" d="M22.3,51l0.1-0.1c0.1,0,0.2,0.1,0.2,0.2C22.5,51.2,22.4,51,22.3,51z"/>
	<path class="st80" d="M47.8,51.3L47.8,51.3c0.1-0.2,0.1-0.3,0.2-0.2C48,51.2,47.9,51.2,47.8,51.3z"/>
	<path class="st153" d="M21.6,19.6c0.1,0,0.1,0.1,0.1,0.1h-0.1C21.6,19.8,21.5,19.7,21.6,19.6L21.6,19.6z"/>
	<path class="st154" d="M33.9,54.8C33.9,54.8,33.9,54.7,33.9,54.8c0.1-0.1,0.3-0.1,0.4,0C34.2,54.8,34,54.8,33.9,54.8z"/>
	<path class="st16" d="M21.6,19.6L21.6,19.6L21.6,19.6c-0.1,0-0.2-0.1-0.2-0.2c0.1,0,0.1,0,0.2,0C21.6,19.5,21.6,19.6,21.6,19.6z"/>
	<path class="st155" d="M21,52.1c0,0.1,0,0.1-0.1,0.2c-0.1,0-0.2-0.1-0.2-0.2C20.8,52,20.9,52.2,21,52.1z"/>
	<path class="st156" d="M39,17.9C39.1,17.8,39.1,17.8,39,17.9c0.2,0,0.3,0,0.4,0.1C39.2,18,39.1,17.9,39,17.9z"/>
	<path class="st157" d="M38.2,17.7l0.1-0.1c0.1,0,0.2,0.1,0.2,0.1C38.4,17.8,38.3,17.7,38.2,17.7z"/>
	<path class="st158" d="M38,17.5l0.1,0.1c-0.1,0-0.2,0-0.4-0.1C37.8,17.4,37.9,17.5,38,17.5z"/>
	<path class="st123" d="M38.7,54.9C38.7,54.9,38.8,54.9,38.7,54.9c0.1,0,0.2,0.1,0.1,0.2C38.7,55.1,38.7,55,38.7,54.9z"/>
	<path class="st20" d="M25.6,17.7c0,0.1,0,0.1-0.1,0.2c0-0.1,0-0.3,0-0.4c0,0,0,0,0.1,0C25.6,17.5,25.6,17.6,25.6,17.7z"/>
	<path class="st99" d="M21.2,52.5C21.2,52.4,21.2,52.4,21.2,52.5c0.1,0,0.2,0,0.2,0.1C21.3,52.6,21.2,52.5,21.2,52.5z"/>
	<path class="st159" d="M52.5,37.1C52.5,37.1,52.6,37.1,52.5,37.1c0.1,0.1,0.1,0.3,0,0.4l0,0l0,0C52.5,37.4,52.5,37.2,52.5,37.1z"/>
	<path class="st160" d="M50,47.4C50,47.4,50,47.3,50,47.4c0.1,0,0.2,0.1,0.2,0.2C50.1,47.6,50,47.5,50,47.4z"/>
	<path class="st161" d="M40.8,17L40.8,17c-0.1-0.1,0-0.2,0-0.4c0,0,0,0,0.1,0C41,16.8,40.9,16.9,40.8,17z"/>
	<path class="st50" d="M39.4,16.6C39.4,16.6,39.5,16.6,39.4,16.6c0,0.2,0.1,0.3-0.1,0.3C39.3,16.8,39.4,16.7,39.4,16.6z"/>
	<path class="st162" d="M14.5,28.1v0.1c0,0.1,0,0.1-0.1,0.2h-0.1C14.4,28.3,14.4,28.2,14.5,28.1z"/>
	<path class="st137" d="M40.9,16.6L40.9,16.6c0-0.1,0-0.3,0.2-0.2C41,16.5,41,16.6,40.9,16.6z"/>
	<path class="st163" d="M19.2,47.8h-0.1c-0.1-0.1-0.1-0.1-0.2-0.2c0,0,0.1,0,0.1-0.1C19.1,47.6,19.1,47.7,19.2,47.8z"/>
	<path class="st164" d="M15.9,42C15.9,41.9,15.9,41.9,15.9,42c0.2,0,0.2,0.1,0.2,0.2C15.9,42.2,16,42,15.9,42z"/>
	<path class="st165" d="M53.1,28.2C53.1,28.2,53.1,28.3,53.1,28.2c-0.1,0-0.2-0.1-0.2-0.2c0.1,0,0.1,0,0.1,0
		C53.1,28,53.1,28.1,53.1,28.2z"/>
	<path class="st154" d="M36.7,15.4l0.1,0.1c-0.1,0.1-0.1,0.2-0.2,0.2C36.7,15.5,36.7,15.4,36.7,15.4z"/>
	<path class="st166" d="M53.9,41c-0.1,0-0.1,0-0.2-0.1c0.1,0,0.1-0.1,0.2-0.2C54,40.8,54,40.9,53.9,41z"/>
	<path class="st167" d="M37.8,56.3L37.8,56.3c0,0.1-0.1,0.2-0.2,0.1C37.6,56.3,37.7,56.2,37.8,56.3z"/>
	<path class="st168" d="M50.7,25.9C50.6,25.9,50.6,25.9,50.7,25.9c0-0.1,0.1-0.3,0.2-0.1C50.9,25.9,50.7,25.9,50.7,25.9z"/>
	<path class="st169" d="M16,27.6C16,27.5,16,27.5,16,27.6c0.1,0,0.2,0,0.3,0.1v0.1C16.2,27.7,16.1,27.6,16,27.6z"/>
	<path class="st145" d="M30.4,54.4C30.4,54.4,30.4,54.5,30.4,54.4c-0.1,0.2-0.2,0.1-0.3,0.1L30,54.4C30.1,54.4,30.3,54.4,30.4,54.4z
		"/>
	<path class="st170" d="M15.2,45L15.2,45c0.1,0.1,0.2,0.1,0.2,0.2l-0.1,0.1C15.2,45.3,15.2,45.2,15.2,45z"/>
	<path class="st171" d="M41.3,54.3C41.3,54.2,41.3,54.2,41.3,54.3c0.1-0.2,0.1-0.2,0.3-0.1C41.5,54.2,41.4,54.3,41.3,54.3z"/>
	<path class="st172" d="M18.6,24.8C18.6,24.8,18.6,24.7,18.6,24.8c0-0.1,0-0.2,0.1-0.2C18.8,24.7,18.7,24.7,18.6,24.8z"/>
	<path class="st173" d="M51,24.3L51,24.3c-0.1,0-0.2-0.1-0.2-0.1C50.9,24.1,51,24.2,51,24.3z"/>
	<path class="st158" d="M16.9,44.1L16.9,44.1C16.9,44.1,16.8,44.1,16.9,44.1c-0.2,0-0.1-0.2-0.2-0.2h0.1
		C16.9,43.9,16.9,44,16.9,44.1z"/>
	<path class="st38" d="M18.8,23.8L18.8,23.8c0.1,0,0.2,0.1,0.2,0.2h-0.1C18.8,23.9,18.8,23.9,18.8,23.8z"/>
	<path class="st174" d="M19.9,23.2L19.9,23.2c0-0.2,0.1-0.2,0.2-0.2C20.1,23.1,20,23.2,19.9,23.2z"/>
	<path class="st175" d="M49.2,22.1V22c0.1,0.1,0.1,0.1,0.2,0.2C49.3,22.3,49.3,22.1,49.2,22.1z"/>
	<path class="st152" d="M17.1,45.4C17.2,45.4,17.2,45.4,17.1,45.4c0,0.1-0.1,0.2-0.2,0.2v-0.1C17,45.4,17.1,45.4,17.1,45.4z"/>
	<path class="st176" d="M48.2,21L48.2,21c0.1,0,0.2,0,0.2,0.1C48.3,21.2,48.3,21.1,48.2,21z"/>
	<path class="st177" d="M47.1,19.9C47.1,19.9,47,20,47.1,19.9c-0.1,0-0.2,0-0.2-0.1C47,19.8,47,19.8,47.1,19.9z"/>
	<path class="st100" d="M50.8,45.5L50.8,45.5c-0.1,0-0.3,0-0.2-0.1C50.7,45.3,50.8,45.4,50.8,45.5z"/>
	<path class="st130" d="M31.5,17.3C31.5,17.3,31.5,17.2,31.5,17.3c0-0.1,0.1-0.2,0.1-0.2s0,0,0.1,0.1C31.7,17.2,31.6,17.3,31.5,17.3
		z"/>
	<path class="st178" d="M13.4,39.7c0,0.1,0,0.1,0,0.2c-0.1-0.1-0.1-0.2-0.1-0.4C13.4,39.5,13.4,39.6,13.4,39.7z"/>
	<path class="st179" d="M41.6,53C41.6,53,41.6,53.1,41.6,53c0,0.1-0.1,0.1-0.2,0.1C41.4,53.1,41.5,53.1,41.6,53z"/>
	<path class="st180" d="M40.9,53.5C40.8,53.4,40.8,53.4,40.9,53.5c0-0.1,0.1-0.2,0.2-0.1C41,53.4,40.9,53.4,40.9,53.5z"/>
	<path class="st181" d="M32.2,15.2L32.2,15.2c-0.1,0.1-0.2,0.2-0.2,0C32,15.1,32.1,15.2,32.2,15.2z"/>
	<path class="st65" d="M24.7,53.5L24.7,53.5c0.1,0,0.1,0,0.2,0.1C24.8,53.6,24.8,53.6,24.7,53.5z"/>
	<path class="st182" d="M16.3,27.7v-0.1c0.1,0,0.2,0,0.2,0.1c0,0,0,0-0.1,0.1C16.4,27.8,16.4,27.8,16.3,27.7z"/>
	<path class="st183" d="M18.4,46.7h-0.1c0-0.1-0.1-0.1-0.1-0.2h0.1C18.3,46.6,18.4,46.6,18.4,46.7z"/>
	<path class="st184" d="M16,46.1L16,46.1c0-0.1,0.1-0.2,0.2-0.1C16.2,46.1,16.1,46.1,16,46.1z"/>
	<path class="st185" d="M53.4,42.5L53.4,42.5c0.1,0.2,0.1,0.2,0,0.3c0,0,0-0.1-0.1-0.1C53.3,42.6,53.4,42.6,53.4,42.5z"/>
	<path class="st186" d="M16.6,43.4c-0.1,0,0,0.1-0.1,0.1v-0.1c0,0-0.1-0.1,0-0.1C16.5,43.3,16.6,43.4,16.6,43.4z"/>
	<path class="st187" d="M17.1,47.1L17.1,47.1c0.1-0.1,0.1-0.2,0.2-0.2C17.3,47.1,17.2,47.1,17.1,47.1z"/>
	<path class="st71" d="M51.2,45.8C51.2,45.8,51.2,45.7,51.2,45.8c0.1,0,0.3,0,0.2,0.1C51.3,45.9,51.2,45.8,51.2,45.8z"/>
	<path class="st188" d="M42.3,54.8L42.3,54.8C42.4,54.9,42.3,54.9,42.3,54.8c-0.1,0.1-0.1,0.2-0.2,0.1
		C42.1,54.8,42.2,54.8,42.3,54.8z"/>
	<path class="st189" d="M49.9,47C49.8,47,49.8,47.1,49.9,47c-0.1,0-0.3-0.1-0.2-0.1C49.8,46.8,49.8,47,49.9,47z"/>
	<path class="st190" d="M24.8,54.6L24.8,54.6c-0.1,0.1-0.2,0.1-0.2,0C24.6,54.5,24.7,54.6,24.8,54.6z"/>
	<path class="st191" d="M14.1,42.2C14,42.2,14,42.2,14.1,42.2c-0.2-0.1-0.2-0.1-0.1-0.2C14,42,14,42.1,14.1,42.2z"/>
	<path class="st138" d="M51.8,26.9C51.7,26.9,51.7,26.8,51.8,26.9c0-0.1,0.1-0.2,0.2-0.1C51.9,26.8,51.8,26.9,51.8,26.9z"/>
	<path class="st192" d="M35.9,54.7L35.9,54.7c0.1-0.2,0.1-0.1,0.2-0.1C36,54.8,35.9,54.7,35.9,54.7z"/>
	<path class="st193" d="M18.3,46.5C18.2,46.5,18.2,46.5,18.3,46.5c-0.2,0-0.2-0.1-0.2-0.2C18.2,46.3,18.2,46.4,18.3,46.5z"/>
	<path class="st194" d="M47.5,48.9L47.5,48.9c0-0.2,0-0.2,0.1-0.2C47.6,48.8,47.6,48.9,47.5,48.9z"/>
	<path class="st93" d="M17.4,48.8h0.1c0.1,0,0.1,0.1,0.1,0.2C17.5,49,17.5,48.9,17.4,48.8z"/>
	<path class="st93" d="M13.4,38.8C13.4,38.8,13.4,38.9,13.4,38.8c-0.1,0-0.1-0.1-0.2-0.1l0,0C13.4,38.7,13.4,38.8,13.4,38.8z"/>
	<path class="st195" d="M17.7,46.7L17.7,46.7c0.1-0.1,0.1-0.2,0.2-0.2C17.9,46.7,17.8,46.7,17.7,46.7z"/>
	<path class="st77" d="M31.4,56.5c0,0,0,0.1,0.1,0.1c-0.1,0-0.2,0-0.3,0C31.2,56.5,31.4,56.6,31.4,56.5z"/>
	<path class="st196" d="M14.4,39.9l0.1-0.1c0,0.1,0,0.2,0,0.4l0,0C14.4,40.1,14.4,40,14.4,39.9z"/>
	<path class="st197" d="M17,45.4L17,45.4c-0.1,0.1-0.1,0.2-0.2,0.2C16.8,45.5,16.9,45.5,17,45.4z"/>
	<path class="st198" d="M52.9,28.7C52.9,28.8,52.9,28.8,52.9,28.7c0,0.1-0.1,0.2-0.1,0.1C52.7,28.8,52.8,28.8,52.9,28.7z"/>
	<path class="st2" d="M33.8,20.8c8.6,0,15.4,7.1,15.1,15.7c-0.3,8.3-7.1,14.9-15.6,14.7C25,51,18.3,44,18.6,35.4
		C18.9,27.3,25.6,20.8,33.8,20.8z"/>
	<path class="st32" d="M29.1,16.6c-0.2-0.3-0.3-0.5-0.2-0.9c0.3,0,0.5,0,0.5,0.4C29.4,16.4,29.3,16.5,29.1,16.6z"/>
	<path class="st48" d="M43.6,53.4c-0.1,0-0.2,0.1-0.2,0c0-0.2-0.2-0.3,0-0.5c0.1,0.1,0.2,0.2,0.3,0.3C43.8,53.3,43.7,53.4,43.6,53.4
		z"/>
	<path class="st199" d="M30.1,54.5c0.1,0,0.2,0,0.3,0c0.1,0,0.2,0.1,0.3,0.1c0.3,0.4,0.2,1.1-0.2,1.6c-0.2,0.1-0.5,0.1-0.7,0
		C29.9,55.7,30,55.1,30.1,54.5z"/>
	<path class="st200" d="M14.9,36.5c0,0.1-0.1,0.2-0.1,0.4c-0.5,0.3-1.4,0.3-1.7-0.1c-0.1-0.2-0.1-0.3,0-0.5c0.5-0.4,1.1-0.3,1.6-0.1
		C14.9,36.2,14.9,36.3,14.9,36.5z"/>
	<path class="st3" d="M35,23.3c0.9,0,1.8,0,2.7,0c0.2,0,0.3,0.1,0.3,0.3c0,1.1,0,2.2,0,3.3c0,0.2,0,0.3,0.3,0.3s0.6,0,0.8,0
		s0.2,0,0.3,0.2c0,0.7,0,0.7,0.7,0.7c0.9,0,1.7,0,2.6,0c0.2,0,0.3,0.1,0.3,0.3c0.4,3.6,0.8,7.3,1.2,10.9c0.2,1.8,0.4,3.5,0.6,5.3
		c0,0.2,0,0.3-0.2,0.3c-3.5,1.5-6.9,2.9-10.4,4.4c-0.1,0.1-0.3,0.1-0.4,0c-3.5-1.5-6.9-2.9-10.4-4.4c-0.2-0.1-0.2-0.2-0.2-0.4
		c0.2-1.7,0.4-3.4,0.5-5.2c0.2-1.7,0.4-3.4,0.6-5.2c0.2-1.9,0.4-3.9,0.6-5.8c0-0.3,0.1-0.3,0.4-0.3c1.1,0,2.3,0,3.4,0
		c0.5,0,0.5,0,0.5-0.5c0-0.6,0-1.2,0.1-1.9c0.3-1.5,1.5-2.4,3-2.5C33.2,23.3,34.1,23.3,35,23.3z"/>
	<path class="st2" d="M29.6,26.4c0-1.5,1.1-2.6,2.6-2.7c1.8-0.1,3.5,0,5.3,0c0.2,0,0.2,0.1,0.2,0.3c0,1.1,0,2.2,0,3.3
		c0,0.2,0.1,0.3,0.3,0.3c0.3,0,0.7,0,1,0c0.1,0.2,0,0.3,0,0.5c0,0.4,0,0.4,0.4,0.4c0.9,0,1.8,0,2.7,0c0.2,0,0.3,0,0.4,0.2
		c0.1,0.1,0.1,0.2,0,0.3c-0.1,0.1-0.2,0.1-0.3,0.1c-1-0.1-1.9,0-2.9-0.1c-0.7,0-0.9,0.3-0.7,0.9c0.1,0.2,0,0.2-0.1,0.2
		c-0.2,0-0.4,0-0.7,0c-0.2,0-0.3,0.1-0.4,0.2c-0.1,0.2,0,0.3,0.1,0.4s0.1,0.2,0.1,0.2c-0.2,0.2-0.1,0.4-0.1,0.6c0,0.3,0,0.7-0.2,1
		c-0.1,0.2-0.1,0.6,0.1,0.8c0.1,0.1,0.2,0.2,0.3-0.1c0-0.2,0.1-0.3,0.3-0.2c0.3,0.2,0.4,0,0.5-0.2c0-0.1,0.1-0.2,0.2-0.2
		c0.1,0,0.2,0.1,0.3,0.2c0.1,0.1,0.1,0.3,0,0.3c-0.4,0.3-0.3,0.7-0.3,1.1c0,0.5-0.2,0.7-0.8,0.7c-0.2,0-0.4,0.2-0.4,0.5
		c0,0.5,0.1,0.9,0,1.4c0,0.4-0.1,0.5-0.5,0.5c-1,0-2-0.1-3-0.1c-0.3,0-0.4-0.2-0.4-0.4c0-0.7-0.1-1.5,0-2.2v-0.1
		c-0.1-0.6,0.1-1.3,0-1.9c-0.1-0.3,0-0.7,0.1-1.1c0-0.8-0.1-1.5,0-2.3c0-0.4-0.1-0.5-0.5-0.4s-0.8,0-1.2,0c-0.2,0-0.4-0.1-0.4,0.2
		c0,0.2-0.1,0.5,0.2,0.6c0.1,0.1,0.2,0.2,0.1,0.3c-0.1,0.6,0,1.2,0,1.8c0,0.2,0,0.4-0.2,0.6c-0.1,0.1-0.1,0.2-0.1,0.3
		c0,0.5,0.1,1.1,0,1.6c0,0.1,0,0.1,0,0.2c0.2,0.5,0,0.9-0.4,1.3C31,36,30.5,36,30.3,35.8c-0.2-0.2-0.3-0.3-0.2-0.6
		c0.1-0.2,0-0.5,0.1-0.7c0.1-0.1,0-0.2,0-0.3c0-0.4-0.1-0.9-0.1-1.3v-0.1c0.1-0.2,0.2-0.4-0.2-0.4c-0.2,0-0.2-0.2-0.2-0.3
		c0-0.7-0.1-1.4,0.1-2.1c0-0.1,0-0.2,0-0.3c0-0.2-0.1-0.4,0.2-0.5c0.2-0.1,0.1-0.1,0-0.2s-0.3-0.2-0.4-0.2c-1.2,0-2.4,0-3.7,0
		c-0.2,0-0.4-0.1-0.5-0.3v-0.1c0.1-0.2,0.2-0.2,0.4-0.2c1.2,0,2.4,0,3.6,0c0.3,0,0.4-0.1,0.4-0.4C29.6,27.5,29.6,26.9,29.6,26.4z"/>
	<path class="st200" d="M25.3,28.8c0.2,0.1,0.4,0.2,0.7,0.2c1.2-0.1,2.4,0,3.6,0c0.3,0,0.4,0.3,0.5,0.4L30,29.5
		c-0.3,0.1-0.3,0.3-0.1,0.5c0.1,0.1,0.2,0.1,0.1,0.2c-0.2,0.1-0.2,0.3-0.2,0.5c0,0.5,0,1,0,1.5c0,0.2,0,0.4,0.3,0.3
		c0.1,0,0.2,0,0.2,0.1s0,0.2,0,0.3c-0.2,0.3-0.3,0.6,0,0.8c0,0,0,0,0,0.1c-0.1,0.3,0,0.7-0.1,0.9c-0.1,0.3,0,0.6-0.1,0.9
		c-0.1,0.2,0.3,0.4,0.4,0.5c0.4,0.2,0.6-0.1,0.7-0.4c0.2-0.3,0.4-0.5,0.2-0.9c0-0.1,0-0.1,0-0.2c0.1-0.6,0.2-1.2,0-1.9
		c0-0.1,0-0.2,0.1-0.2c0.3-0.1,0.2-0.3,0.3-0.6c0-0.6-0.1-1.2,0.1-1.9c0-0.1,0-0.2-0.1-0.2c-0.6-0.1-0.1-0.5-0.3-0.8
		c0-0.1,0.1-0.2,0.3-0.2c0.6,0.1,1.2,0.1,1.8-0.1c0.2,0,0.2,0,0.2,0.1s0.1,0.3,0.1,0.4c-0.1,0.9,0.1,1.8,0,2.7
		c-0.1,0.6,0.2,1.2-0.1,1.7c-0.1,0.2,0.1,0.3,0.1,0.5c-0.1,0.9,0,1.7-0.1,2.6c0,0.2,0,0.4,0.3,0.4c1,0,2,0.1,3.1,0.1
		c0.3,0,0.4-0.1,0.4-0.3c0-0.3,0-0.6,0-0.9c0-0.3,0-0.5,0-0.8c0-0.1,0.4-0.5,0.6-0.5c0.1,0,0.1,0.2,0.2,0.2c0.1-0.1,0.1-0.3,0.3-0.2
		c0.1,0,0.2-0.1,0.1-0.2c0-0.3-0.1-0.6,0.1-0.8v-0.1c-0.1-0.2-0.1-0.3,0.2-0.3c0.1,0,0.2-0.1,0.2-0.2c0-0.1-0.1-0.2-0.2-0.3
		c-0.1-0.1-0.2,0-0.2,0.1c-0.1,0.6-0.2,0.6-0.6,0.3c0,0,0,0-0.1,0c-0.1,0.1,0,0.2,0,0.3c0,0.2-0.1,0.3-0.2,0.2
		c-0.2-0.1-0.4-0.2-0.4-0.4c0-0.3-0.1-0.6,0.1-0.9c0.2-0.3,0.1-0.8,0-1.1c0-0.1-0.2-0.2,0.1-0.2c0.1,0,0.1,0,0.1-0.1
		s-0.1-0.1-0.1-0.1c-0.1-0.1-0.3-0.2-0.2-0.3c0.1-0.1,0.1-0.3,0.3-0.4c0.3-0.1,0.7,0,1.1-0.1c-0.4-0.2-0.3-0.5-0.2-0.7
		c0.1-0.3,0.4-0.4,0.7-0.4c0.9,0,1.7,0,2.6,0c0.1,0,0.3,0,0.4,0c0.1,0,0.3,0.1,0.4-0.1c0-0.2-0.1-0.4-0.3-0.4c-0.1,0-0.2,0-0.4,0
		c-0.8,0-1.7,0-2.5,0c-0.2,0-0.3-0.1-0.3-0.3c0-0.2,0-0.4,0-0.7c0.1,0.2,0.1,0.4,0,0.5c0,0.3,0.1,0.4,0.4,0.4c1,0,2,0,2.9,0
		c0.2,0,0.3,0.1,0.4,0.3c0.2,1.5,0.3,3,0.5,4.5c0.2,2,0.4,3.9,0.6,5.9c0.2,1.7,0.4,3.4,0.5,5.1c0,0.2,0,0.3-0.3,0.4
		c-3.3,1.4-6.6,2.8-9.9,4.2c-0.2,0.1-0.3,0.1-0.5,0c-3.3-1.4-6.6-2.8-9.9-4.2c-0.2-0.1-0.3-0.2-0.2-0.4c0.4-3.5,0.8-7.1,1.1-10.6
		c0.2-1.5,0.3-3,0.5-4.5C25.2,29,25.2,28.9,25.3,28.8z"/>
	<path class="st200" d="M29.6,26.4c0,0.6,0,1.2,0,1.8c0,0.3-0.1,0.3-0.3,0.3c-1.2,0-2.4,0-3.6,0c-0.2,0-0.3,0.1-0.4,0.2
		c0-0.3,0.2-0.2,0.3-0.2c1.2,0,2.5,0,3.7,0c0.3,0,0.3-0.1,0.3-0.3C29.6,27.5,29.5,26.9,29.6,26.4z"/>
	<path class="st201" d="M33.5,27c0,0.4,0,0.8,0,1.2c0,0.2-0.1,0.3-0.2,0.3c-0.4,0-0.8,0-1.1,0c-0.1,0-0.2,0-0.2-0.2
		c0-0.6,0-1.1,0-1.7c0.1-0.7,0.8-1.2,1.5-0.9c0.1,0,0.1,0.2,0.1,0.2C33.5,26.3,33.5,26.6,33.5,27z"/>
	<path class="st202" d="M43.6,43.5c0,0.1,0,0.2,0.1,0.3c0.1,0.3,0,0.5-0.3,0.6c-3,1.3-6,2.6-9.1,3.9c-0.2,0.1-0.4,0.1-0.6,0
		c-3-1.3-6.1-2.6-9.1-3.9c-0.2-0.1-0.3-0.2-0.3-0.5c0.2-1.4,0.3-2.7,0.4-4.1c0-0.1,0-0.1,0.1-0.2c0.1-0.2,0-0.3,0-0.5
		c0.2-1.6,0.3-3.2,0.5-4.8c0-0.2,0.1-0.3,0.3-0.3c1.2,0,2.5,0,3.7,0c0.2,0,0.3,0.1,0.3,0.3c0,0.4-0.3,0.7-0.6,0.8
		c-0.3,0.1-0.5,0.2-0.8,0.2c-0.2,0-0.2,0.1-0.2,0.3c0,0.6,0,1.1,0,1.7c0,0.1,0,0.2,0.2,0.2c1.4,0,3.2-0.6,3.7-2.4
		c0.1-0.3,0.1-0.6,0.1-0.9c0-0.2,0.1-0.3,0.3-0.3c0.4,0,0.7,0,1.1,0c0.2,0,0.3,0.1,0.3,0.3c0,1,0,1.9,0,2.9c0,0.3,0.1,0.4,0.4,0.4
		c1.1,0,2.3,0,3.4,0c0.3,0,0.4-0.1,0.4-0.4c0-0.5,0-1,0-1.5c0-0.2,0.1-0.3,0.3-0.3c0.3,0,0.5,0,0.8,0s0.3-0.1,0.3-0.3
		c0-0.3,0-0.6,0-0.8c0-0.3,0.1-0.3,0.4-0.3c0.9,0,1.9,0,2.8,0c0.4,0,0.6,0.1,0.5,0.5c0,0.1,0,0.2,0,0.3c0.1,0.2,0,0.4,0.1,0.5
		c0.1,0.7,0.2,1.5,0.3,2.2c0.2,1.9,0.4,3.8,0.6,5.7C43.6,43.3,43.5,43.4,43.6,43.5z"/>
	<path class="st203" d="M40.8,33.4c-0.5,0-1,0-1.4,0c-0.3,0-0.4-0.1-0.3-0.3c0-0.2-0.1-0.3-0.3-0.3c-0.3,0-0.5,0-0.8,0
		c-0.2,0-0.3,0-0.3-0.2c0-0.7,0-1.3,0-2c0-0.2,0.1-0.2,0.3-0.2c0.3,0,0.5,0,0.8,0c0.2,0,0.3-0.1,0.3-0.3c0-0.2,0-0.4,0-0.6
		s0.1-0.3,0.3-0.3c0.9,0,1.7,0,2.6,0c0.2,0,0.3,0.1,0.3,0.3c0.1,1.3,0.3,2.5,0.4,3.8c0,0.2-0.1,0.3-0.3,0.3
		C41.8,33.4,41.3,33.4,40.8,33.4z"/>
	<path class="st203" d="M29.6,31.2c0,0.6,0,1.2,0,1.8c0,0.3-0.1,0.4-0.4,0.4c-1.2,0-2.3,0-3.5,0c-0.3,0-0.4-0.1-0.3-0.4
		c0.1-0.8,0.2-1.6,0.3-2.4c0-0.4,0.1-0.9,0.1-1.3c0-0.2,0.1-0.3,0.3-0.3c1,0,2.1,0,3.1,0c0.2,0,0.3,0.1,0.3,0.3
		C29.6,30,29.6,30.6,29.6,31.2z"/>
	<path class="st203" d="M33.5,31.3c0,0.6,0,1.2,0,1.9c0,0.2-0.1,0.3-0.3,0.3c-0.4,0-0.7,0-1.1,0c-0.2,0-0.3-0.1-0.3-0.3
		c0-1.2,0-2.5,0-3.7c0-0.2,0.1-0.3,0.3-0.3c0.3,0,0.7,0,1,0c0.2,0,0.3,0.1,0.3,0.3C33.5,30,33.5,30.6,33.5,31.3L33.5,31.3z"/>
	<path class="st2" d="M29.3,37c-0.1,0.1-0.2,0.2-0.3,0.2c-0.1,0-0.1-0.2-0.1-0.4c0-0.1,0-0.3,0-0.4c0-0.3,0-0.5,0.3-0.6
		s0.5,0.2,0.7,0.3c0.1,0.1,0,0.2-0.1,0.2c-0.4,0-0.4,0.4-0.7,0.5C28.9,36.9,29.3,36.8,29.3,37z"/>
	<path class="st2" d="M40.7,33.5c0.3,0,0.6,0,0.9,0c0.1,0,0.3,0,0.3,0.2s-0.2,0.1-0.3,0.1c-0.6,0-1.2,0-1.8,0c-0.2,0-0.3,0-0.3-0.2
		s0.2-0.1,0.3-0.1C40.2,33.5,40.4,33.5,40.7,33.5z"/>
	<path class="st2" d="M28.6,37.1c-0.1-0.3-0.1-0.6,0-0.9C28.6,36.5,28.6,36.8,28.6,37.1z"/>
	<path class="st2" d="M38.9,34.8C38.8,34.9,39,35,38.8,35c-0.1,0-0.2-0.1-0.1-0.2c0-0.1,0-0.2,0.2-0.2C39,34.7,38.9,34.7,38.9,34.8z
		"/>
	<path class="st204" d="M42.8,35.2c-0.2-0.2-0.1-0.4-0.1-0.5C42.8,34.8,42.8,35,42.8,35.2z"/>
	<path class="st2" d="M28.6,35.6c-0.2,0.2-0.2,0.1-0.3,0C28.4,35.6,28.5,35.6,28.6,35.6z"/>
	<path class="st2" d="M39,33.8L39,33.8c-0.1,0.1-0.2,0.1-0.2,0H39C38.9,33.8,39,33.8,39,33.8z"/>
	<path class="st205" d="M24.8,39.1c0,0.2,0.1,0.3,0,0.5C24.8,39.4,24.8,39.2,24.8,39.1z"/>
	<path class="st206" d="M43.6,43.5c-0.2-0.1-0.1-0.2,0-0.4C43.6,43.3,43.6,43.4,43.6,43.5z"/>
	<path class="st2" d="M32.3,33.7C32.3,33.6,32.3,33.6,32.3,33.7c0-0.1,0-0.1,0-0.2C32.4,33.5,32.4,33.6,32.3,33.7
		C32.4,33.6,32.4,33.6,32.3,33.7z"/>
	<path class="st2" d="M30.2,36.5C30.2,36.5,30.3,36.6,30.2,36.5c0.1,0.1,0,0.1,0,0.2C30.2,36.6,30.2,36.6,30.2,36.5
		C30.1,36.5,30.1,36.5,30.2,36.5z"/>
	<path class="st207" d="M33.1,27.1c0,0.2,0,0.5,0,0.7s-0.1,0.3-0.3,0.3c-0.6,0-0.6,0-0.6-0.6c0-0.3,0-0.5,0-0.8s0.1-0.5,0.3-0.6
		C32.6,26,32.8,26,33,26c0.2,0.1,0.1,0.2,0.1,0.4C33.1,26.6,33.1,26.8,33.1,27.1z"/>
	<path class="st208" d="M32.9,40.1c0.4,0.1,0.5,0.4,0.6,0.7c0.1,0.7,0.1,1.3,0,2c-0.1,0.4-0.4,0.6-0.8,0.6c-0.4,0-0.7-0.2-0.8-0.6
		c-0.1-0.4-0.1-0.7-0.2-1.1c0-0.2,0-0.3,0-0.5c0-0.1,0.1-0.3,0.1-0.4c0.1-0.3,0.2-0.6,0.6-0.7C32.6,40,32.8,40,32.9,40.1z"/>
	<path class="st209" d="M30.7,40.1c0.8,0.4,0.9,1.3,0.2,1.9c-0.2,0.2-0.4,0.3-0.7,0.5c-0.1,0.1-0.3,0.2-0.3,0.5c0.4,0,0.7,0,1.1,0
		c0.3,0,0.4,0.1,0.3,0.4c-0.6,0.1-1.2,0.1-1.8,0c-0.1-0.4,0-0.7,0.3-0.9c0.2-0.2,0.5-0.5,0.8-0.7c0.2-0.2,0.3-0.4,0.3-0.6
		c0-0.3-0.1-0.5-0.4-0.6S30,40.7,29.9,41c-0.1,0.2,0,0.5-0.3,0.4s-0.1-0.4,0-0.5c0.1-0.3,0.3-0.5,0.6-0.6C30.3,40,30.5,40,30.7,40.1
		z"/>
	<path class="st210" d="M38.1,42.2c0,0.1,0,0.2,0,0.3c-0.2,0.1-0.3,0.2-0.3,0.4c0,0.1,0,0.2-0.1,0.3c-0.1,0-0.1,0-0.2,0v-0.1
		c0-0.6,0-0.6-0.7-0.7c-0.2,0-0.4,0-0.5,0c-0.2-0.2-0.1-0.3,0-0.5c0.4-0.6,0.7-1.1,1.1-1.7c0.1-0.2,0.2-0.2,0.4-0.2
		c0.1,0.1,0.1,0.3,0.1,0.4c0,0.5,0,1,0,1.5C37.9,42.2,38,42.1,38.1,42.2z"/>
	<path class="st211" d="M35.3,41.6c0,0.5,0,0.9,0,1.4c0,0.1,0,0.3-0.2,0.3s-0.2-0.1-0.2-0.2c0-0.5,0-1.1,0-1.6c0-0.3,0-0.5-0.4-0.4
		h-0.1c-0.1,0-0.2,0-0.2-0.1s0-0.2,0.1-0.2c0.3,0,0.6-0.2,0.7-0.5c0-0.1,0.1-0.1,0.2-0.1c0.1,0,0.1,0.1,0.1,0.2
		C35.3,40.7,35.3,41.2,35.3,41.6z"/>
	<path class="st212" d="M38.1,42.2c-0.1,0-0.2,0-0.3,0c-0.1-0.7,0-1.4,0-2.1c0.1,0.1,0.1,0.2,0.1,0.3c0,0.5,0,0.9,0,1.4
		C37.8,42,37.9,42.1,38.1,42.2z"/>
	<path class="st213" d="M37.8,40.1c0,0.7,0,1.4,0,2.1c-0.1-0.1-0.1-0.2-0.1-0.3C37.7,41.3,37.7,40.7,37.8,40.1
		C37.7,40.1,37.7,40.1,37.8,40.1z"/>
	<path class="st213" d="M36.2,42.5c0.3,0,0.6,0,0.9,0c0.3,0,0.4,0.1,0.4,0.4c0,0.1,0,0.3,0,0.4c-0.1-0.1-0.1-0.2-0.1-0.3
		c0.1-0.3-0.1-0.4-0.4-0.4C36.8,42.5,36.5,42.6,36.2,42.5z"/>
	<path class="st214" d="M29.5,43.3c0.6,0,1.2,0,1.8,0c-0.4,0.2-0.9,0.1-1.3,0.1C29.8,43.4,29.6,43.5,29.5,43.3z"/>
	<path class="st213" d="M37.7,43.3c0-0.1,0-0.3,0-0.4c0-0.3,0.1-0.4,0.3-0.3c0,0,0,0.1-0.1,0.1C37.7,42.7,37.9,43,37.7,43.3
		C37.8,43.2,37.7,43.2,37.7,43.3z"/>
	<path class="st215" d="M37.8,43.2c0-0.2,0-0.3,0-0.5s0.1-0.2,0.2-0.2C37.8,42.7,37.9,43,37.8,43.2z"/>
	<path class="st216" d="M30.7,40.1c-0.2,0-0.3,0-0.5,0C30.3,39.9,30.5,39.9,30.7,40.1z"/>
	<path class="st215" d="M32.9,40.1c-0.2,0-0.3,0-0.5,0C32.6,39.9,32.8,40,32.9,40.1z"/>
	<path class="st217" d="M31.8,41.2c0,0.2,0,0.3,0,0.5C31.7,41.5,31.7,41.3,31.8,41.2z"/>
	<path class="st218" d="M32.2,41.5c0-0.2,0-0.4,0.1-0.6c0.1-0.2,0.2-0.4,0.5-0.4s0.4,0.2,0.4,0.4c0.1,0.6,0.1,1.2,0,1.8
		c-0.1,0.3-0.2,0.4-0.5,0.4c-0.2,0-0.4-0.1-0.5-0.3s-0.1-0.4-0.1-0.7C32.2,41.8,32.2,41.6,32.2,41.5z"/>
	<path class="st219" d="M32.2,41.5c0.1,0.2,0.1,0.3,0,0.5C32.2,41.8,32.2,41.6,32.2,41.5z"/>
	<path class="st220" d="M37.4,42.2c-0.3,0-0.6,0-0.9,0c0.3-0.5,0.6-1,0.9-1.4c0.1,0,0.1,0,0.1,0.1C37.4,41.3,37.5,41.7,37.4,42.2z"
		/>
	<path class="st213" d="M37.4,42.2c0-0.5,0.1-1-0.1-1.4c0-0.1,0.1-0.1,0.1,0C37.5,41.2,37.6,41.7,37.4,42.2z"/>
</g>
<circle class="st221" cx="65.7" cy="11.2" r="6.4"/>
<line class="st222" x1="65.5" y1="6.1" x2="65.5" y2="11"/>
<line class="st221" x1="65.2" y1="11.2" x2="69.5" y2="11.2"/>
</svg>
